<?xml version="1.0" encoding="UTF-8" standalone="no"?><svg xmlns="http://www.w3.org/2000/svg" xmlns:xlink="http://www.w3.org/1999/xlink" clip-rule="evenodd" stroke-miterlimit="4.00" viewBox="0 0 1638 58"><desc>SVG generated by Keynote</desc><defs></defs><g transform="matrix(1.00, 0.00, -0.00, -1.00, 0.0, 58.0)"><image xlink:href="../../D965DBC9-663C-4420-9906-50F45048D44D/assets/5742F264FCC67E45771FD635BE1F43BF.png" width="21.00" height="22.00" transform="matrix(1.00, 0.00, -0.00, -1.00, 2.0, 43.0)"></image><text xml:space="preserve" font-family="HelveticaNeue-Medium" font-size="34.5" fill="#EAEAEA" transform="matrix(1.00, 0.00, -0.00, -1.00, 4.0, 21.7)">•</text><image xlink:href="3235B3B8079891D9C01ED3525DC6FD11.png" width="1593.00" height="52.00" transform="matrix(1.00, 0.00, -0.00, -1.00, 44.0, 53.0)"></image><text xml:space="preserve" font-family="HelveticaNeue-Medium" font-size="46.0" fill="#EAEAEA" transform="matrix(1.00, 0.00, -0.00, -1.00, 47.0, 17.0)">s</text><text xml:space="preserve" font-family="HelveticaNeue-Medium" font-size="46.0" fill="#EAEAEA" transform="matrix(1.00, 0.00, -0.00, -1.00, 70.9, 17.0)">p</text><text xml:space="preserve" font-family="HelveticaNeue-Medium" font-size="46.0" fill="#EAEAEA" transform="matrix(1.00, 0.00, -0.00, -1.00, 99.0, 17.0)">l</text><text xml:space="preserve" font-family="HelveticaNeue-Medium" font-size="46.0" fill="#EAEAEA" transform="matrix(1.00, 0.00, -0.00, -1.00, 110.1, 17.0)">i</text><text xml:space="preserve" font-family="HelveticaNeue-Medium" font-size="46.0" fill="#EAEAEA" transform="matrix(1.00, 0.00, -0.00, -1.00, 121.2, 17.0)">t</text><text xml:space="preserve" font-family="HelveticaNeue-Medium" font-size="46.0" fill="#EAEAEA" transform="matrix(1.00, 0.00, -0.00, -1.00, 136.5, 17.0)"> </text><text xml:space="preserve" font-family="HelveticaNeue-Medium" font-size="46.0" fill="#EAEAEA" transform="matrix(1.00, 0.00, -0.00, -1.00, 149.3, 17.0)">-</text><text xml:space="preserve" font-family="HelveticaNeue-Medium" font-size="46.0" fill="#EAEAEA" transform="matrix(1.00, 0.00, -0.00, -1.00, 167.2, 17.0)"> </text><text xml:space="preserve" font-family="HelveticaNeue-Medium" font-size="46.0" fill="#EAEAEA" transform="matrix(1.00, 0.00, -0.00, -1.00, 179.9, 17.0)">s</text><text xml:space="preserve" font-family="HelveticaNeue-Medium" font-size="46.0" fill="#EAEAEA" transform="matrix(1.00, 0.00, -0.00, -1.00, 203.8, 17.0)">p</text><text xml:space="preserve" font-family="HelveticaNeue-Medium" font-size="46.0" fill="#EAEAEA" transform="matrix(1.00, 0.00, -0.00, -1.00, 231.9, 17.0)">l</text><text xml:space="preserve" font-family="HelveticaNeue-Medium" font-size="46.0" fill="#EAEAEA" transform="matrix(1.00, 0.00, -0.00, -1.00, 243.0, 17.0)">i</text><text xml:space="preserve" font-family="HelveticaNeue-Medium" font-size="46.0" fill="#EAEAEA" transform="matrix(1.00, 0.00, -0.00, -1.00, 254.1, 17.0)">t</text><text xml:space="preserve" font-family="HelveticaNeue-Medium" font-size="46.0" fill="#EAEAEA" transform="matrix(1.00, 0.00, -0.00, -1.00, 269.4, 17.0)"> </text><text xml:space="preserve" font-family="HelveticaNeue-Medium" font-size="46.0" fill="#EAEAEA" transform="matrix(1.00, 0.00, -0.00, -1.00, 282.2, 17.0)">a</text><text xml:space="preserve" font-family="HelveticaNeue-Medium" font-size="46.0" fill="#EAEAEA" transform="matrix(1.00, 0.00, -0.00, -1.00, 307.8, 17.0)"> </text><text xml:space="preserve" font-family="HelveticaNeue-Medium" font-size="46.0" fill="#EAEAEA" transform="matrix(1.00, 0.00, -0.00, -1.00, 320.6, 17.0)">r</text><text xml:space="preserve" font-family="HelveticaNeue-Medium" font-size="46.0" fill="#EAEAEA" transform="matrix(1.00, 0.00, -0.00, -1.00, 335.9, 17.0)">e</text><text xml:space="preserve" font-family="HelveticaNeue-Medium" font-size="46.0" fill="#EAEAEA" transform="matrix(1.00, 0.00, -0.00, -1.00, 361.5, 17.0)">a</text><text xml:space="preserve" font-family="HelveticaNeue-Medium" font-size="46.0" fill="#EAEAEA" transform="matrix(1.00, 0.00, -0.00, -1.00, 387.1, 17.0)">d</text><text xml:space="preserve" font-family="HelveticaNeue-Medium" font-size="46.0" fill="#EAEAEA" transform="matrix(1.00, 0.00, -0.00, -1.00, 415.2, 17.0)">a</text><text xml:space="preserve" font-family="HelveticaNeue-Medium" font-size="46.0" fill="#EAEAEA" transform="matrix(1.00, 0.00, -0.00, -1.00, 440.8, 17.0)">b</text><text xml:space="preserve" font-family="HelveticaNeue-Medium" font-size="46.0" fill="#EAEAEA" transform="matrix(1.00, 0.00, -0.00, -1.00, 468.9, 17.0)">l</text><text xml:space="preserve" font-family="HelveticaNeue-Medium" font-size="46.0" fill="#EAEAEA" transform="matrix(1.00, 0.00, -0.00, -1.00, 480.0, 17.0)">e</text><text xml:space="preserve" font-family="HelveticaNeue-Medium" font-size="46.0" fill="#EAEAEA" transform="matrix(1.00, 0.00, -0.00, -1.00, 505.5, 17.0)"> </text><text xml:space="preserve" font-family="HelveticaNeue-Medium" font-size="46.0" fill="#EAEAEA" transform="matrix(1.00, 0.00, -0.00, -1.00, 518.3, 17.0)">s</text><text xml:space="preserve" font-family="HelveticaNeue-Medium" font-size="46.0" fill="#EAEAEA" transform="matrix(1.00, 0.00, -0.00, -1.00, 542.2, 17.0)">t</text><text xml:space="preserve" font-family="HelveticaNeue-Medium" font-size="46.0" fill="#EAEAEA" transform="matrix(1.00, 0.00, -0.00, -1.00, 557.5, 17.0)">r</text><text xml:space="preserve" font-family="HelveticaNeue-Medium" font-size="46.0" fill="#EAEAEA" transform="matrix(1.00, 0.00, -0.00, -1.00, 572.9, 17.0)">e</text><text xml:space="preserve" font-family="HelveticaNeue-Medium" font-size="46.0" fill="#EAEAEA" transform="matrix(1.00, 0.00, -0.00, -1.00, 598.4, 17.0)">a</text><text xml:space="preserve" font-family="HelveticaNeue-Medium" font-size="46.0" fill="#EAEAEA" transform="matrix(1.00, 0.00, -0.00, -1.00, 624.0, 17.0)">m</text><text xml:space="preserve" font-family="HelveticaNeue-Medium" font-size="46.0" fill="#EAEAEA" transform="matrix(1.00, 0.00, -0.00, -1.00, 664.0, 17.0)"> </text><text xml:space="preserve" font-family="HelveticaNeue-Medium" font-size="46.0" fill="#EAEAEA" transform="matrix(1.00, 0.00, -0.00, -1.00, 676.8, 17.0)">i</text><text xml:space="preserve" font-family="HelveticaNeue-Medium" font-size="46.0" fill="#EAEAEA" transform="matrix(1.00, 0.00, -0.00, -1.00, 687.9, 17.0)">n</text><text xml:space="preserve" font-family="HelveticaNeue-Medium" font-size="46.0" fill="#EAEAEA" transform="matrix(1.00, 0.00, -0.00, -1.00, 714.3, 17.0)">t</text><text xml:space="preserve" font-family="HelveticaNeue-Medium" font-size="46.0" fill="#EAEAEA" transform="matrix(1.00, 0.00, -0.00, -1.00, 729.6, 17.0)">o</text><text xml:space="preserve" font-family="HelveticaNeue-Medium" font-size="46.0" fill="#EAEAEA" transform="matrix(1.00, 0.00, -0.00, -1.00, 756.9, 17.0)"> </text><text xml:space="preserve" font-family="HelveticaNeue-Medium" font-size="46.0" fill="#EAEAEA" transform="matrix(1.00, 0.00, -0.00, -1.00, 769.7, 17.0)">l</text><text xml:space="preserve" font-family="HelveticaNeue-Medium" font-size="46.0" fill="#EAEAEA" transform="matrix(1.00, 0.00, -0.00, -1.00, 780.8, 17.0)">i</text><text xml:space="preserve" font-family="HelveticaNeue-Medium" font-size="46.0" fill="#EAEAEA" transform="matrix(1.00, 0.00, -0.00, -1.00, 791.9, 17.0)">n</text><text xml:space="preserve" font-family="HelveticaNeue-Medium" font-size="46.0" fill="#EAEAEA" transform="matrix(1.00, 0.00, -0.00, -1.00, 818.3, 17.0)">e</text><text xml:space="preserve" font-family="HelveticaNeue-Medium" font-size="46.0" fill="#EAEAEA" transform="matrix(1.00, 0.00, -0.00, -1.00, 843.9, 17.0)">s</text><text xml:space="preserve" font-family="HelveticaNeue-Medium" font-size="46.0" fill="#EAEAEA" transform="matrix(1.00, 0.00, -0.00, -1.00, 867.7, 17.0)"> </text><text xml:space="preserve" font-family="HelveticaNeue-Medium" font-size="46.0" fill="#EAEAEA" transform="matrix(1.00, 0.00, -0.00, -1.00, 880.5, 17.0)">(</text><text xml:space="preserve" font-family="HelveticaNeue-Medium" font-size="46.0" fill="#EAEAEA" transform="matrix(1.00, 0.00, -0.00, -1.00, 893.3, 17.0)">g</text><text xml:space="preserve" font-family="HelveticaNeue-Medium" font-size="46.0" fill="#EAEAEA" transform="matrix(1.00, 0.00, -0.00, -1.00, 920.6, 17.0)">r</text><text xml:space="preserve" font-family="HelveticaNeue-Medium" font-size="46.0" fill="#EAEAEA" transform="matrix(1.00, 0.00, -0.00, -1.00, 936.0, 17.0)">e</text><text xml:space="preserve" font-family="HelveticaNeue-Medium" font-size="46.0" fill="#EAEAEA" transform="matrix(1.00, 0.00, -0.00, -1.00, 961.5, 17.0)">a</text><text xml:space="preserve" font-family="HelveticaNeue-Medium" font-size="46.0" fill="#EAEAEA" transform="matrix(1.00, 0.00, -0.00, -1.00, 987.1, 17.0)">t</text><text xml:space="preserve" font-family="HelveticaNeue-Medium" font-size="46.0" fill="#EAEAEA" transform="matrix(1.00, 0.00, -0.00, -1.00, 1002.4, 17.0)"> </text><text xml:space="preserve" font-family="HelveticaNeue-Medium" font-size="46.0" fill="#EAEAEA" transform="matrix(1.00, 0.00, -0.00, -1.00, 1015.2, 17.0)">f</text><text xml:space="preserve" font-family="HelveticaNeue-Medium" font-size="46.0" fill="#EAEAEA" transform="matrix(1.00, 0.00, -0.00, -1.00, 1029.7, 17.0)">o</text><text xml:space="preserve" font-family="HelveticaNeue-Medium" font-size="46.0" fill="#EAEAEA" transform="matrix(1.00, 0.00, -0.00, -1.00, 1057.0, 17.0)">r</text><text xml:space="preserve" font-family="HelveticaNeue-Medium" font-size="46.0" fill="#EAEAEA" transform="matrix(1.00, 0.00, -0.00, -1.00, 1073.2, 17.0)"> </text><text xml:space="preserve" font-family="HelveticaNeue-Medium" font-size="46.0" fill="#EAEAEA" transform="matrix(1.00, 0.00, -0.00, -1.00, 1086.0, 17.0)">p</text><text xml:space="preserve" font-family="HelveticaNeue-Medium" font-size="46.0" fill="#EAEAEA" transform="matrix(1.00, 0.00, -0.00, -1.00, 1114.1, 17.0)">r</text><text xml:space="preserve" font-family="HelveticaNeue-Medium" font-size="46.0" fill="#EAEAEA" transform="matrix(1.00, 0.00, -0.00, -1.00, 1129.4, 17.0)">o</text><text xml:space="preserve" font-family="HelveticaNeue-Medium" font-size="46.0" fill="#EAEAEA" transform="matrix(1.00, 0.00, -0.00, -1.00, 1156.7, 17.0)">c</text><text xml:space="preserve" font-family="HelveticaNeue-Medium" font-size="46.0" fill="#EAEAEA" transform="matrix(1.00, 0.00, -0.00, -1.00, 1182.3, 17.0)">e</text><text xml:space="preserve" font-family="HelveticaNeue-Medium" font-size="46.0" fill="#EAEAEA" transform="matrix(1.00, 0.00, -0.00, -1.00, 1207.9, 17.0)">s</text><text xml:space="preserve" font-family="HelveticaNeue-Medium" font-size="46.0" fill="#EAEAEA" transform="matrix(1.00, 0.00, -0.00, -1.00, 1231.7, 17.0)">s</text><text xml:space="preserve" font-family="HelveticaNeue-Medium" font-size="46.0" fill="#EAEAEA" transform="matrix(1.00, 0.00, -0.00, -1.00, 1255.6, 17.0)">i</text><text xml:space="preserve" font-family="HelveticaNeue-Medium" font-size="46.0" fill="#EAEAEA" transform="matrix(1.00, 0.00, -0.00, -1.00, 1266.7, 17.0)">n</text><text xml:space="preserve" font-family="HelveticaNeue-Medium" font-size="46.0" fill="#EAEAEA" transform="matrix(1.00, 0.00, -0.00, -1.00, 1293.1, 17.0)">g</text><text xml:space="preserve" font-family="HelveticaNeue-Medium" font-size="46.0" fill="#EAEAEA" transform="matrix(1.00, 0.00, -0.00, -1.00, 1320.4, 17.0)"> </text><text xml:space="preserve" font-family="HelveticaNeue-Medium" font-size="46.0" fill="#EAEAEA" transform="matrix(1.00, 0.00, -0.00, -1.00, 1333.2, 17.0)">l</text><text xml:space="preserve" font-family="HelveticaNeue-Medium" font-size="46.0" fill="#EAEAEA" transform="matrix(1.00, 0.00, -0.00, -1.00, 1344.2, 17.0)">o</text><text xml:space="preserve" font-family="HelveticaNeue-Medium" font-size="46.0" fill="#EAEAEA" transform="matrix(1.00, 0.00, -0.00, -1.00, 1371.5, 17.0)">g</text><text xml:space="preserve" font-family="HelveticaNeue-Medium" font-size="46.0" fill="#EAEAEA" transform="matrix(1.00, 0.00, -0.00, -1.00, 1398.8, 17.0)">s</text><text xml:space="preserve" font-family="HelveticaNeue-Medium" font-size="46.0" fill="#EAEAEA" transform="matrix(1.00, 0.00, -0.00, -1.00, 1422.7, 17.0)">,</text><text xml:space="preserve" font-family="HelveticaNeue-Medium" font-size="46.0" fill="#EAEAEA" transform="matrix(1.00, 0.00, -0.00, -1.00, 1435.5, 17.0)"> </text><text xml:space="preserve" font-family="HelveticaNeue-Medium" font-size="46.0" fill="#EAEAEA" transform="matrix(1.00, 0.00, -0.00, -1.00, 1448.3, 17.0)">b</text><text xml:space="preserve" font-family="HelveticaNeue-Medium" font-size="46.0" fill="#EAEAEA" transform="matrix(1.00, 0.00, -0.00, -1.00, 1476.4, 17.0)">i</text><text xml:space="preserve" font-family="HelveticaNeue-Medium" font-size="46.0" fill="#EAEAEA" transform="matrix(1.00, 0.00, -0.00, -1.00, 1487.4, 17.0)">g</text><text xml:space="preserve" font-family="HelveticaNeue-Medium" font-size="46.0" fill="#EAEAEA" transform="matrix(1.00, 0.00, -0.00, -1.00, 1514.7, 17.0)"> </text><text xml:space="preserve" font-family="HelveticaNeue-Medium" font-size="46.0" fill="#EAEAEA" transform="matrix(1.00, 0.00, -0.00, -1.00, 1527.5, 17.0)">d</text><text xml:space="preserve" font-family="HelveticaNeue-Medium" font-size="46.0" fill="#EAEAEA" transform="matrix(1.00, 0.00, -0.00, -1.00, 1555.6, 17.0)">a</text><text xml:space="preserve" font-family="HelveticaNeue-Medium" font-size="46.0" fill="#EAEAEA" transform="matrix(1.00, 0.00, -0.00, -1.00, 1581.2, 17.0)">t</text><text xml:space="preserve" font-family="HelveticaNeue-Medium" font-size="46.0" fill="#EAEAEA" transform="matrix(1.00, 0.00, -0.00, -1.00, 1596.5, 17.0)">a</text><text xml:space="preserve" font-family="HelveticaNeue-Medium" font-size="46.0" fill="#EAEAEA" transform="matrix(1.00, 0.00, -0.00, -1.00, 1622.1, 17.0)">)</text></g></svg>