<?xml version="1.0" encoding="UTF-8" standalone="no"?><svg xmlns="http://www.w3.org/2000/svg" xmlns:xlink="http://www.w3.org/1999/xlink" clip-rule="evenodd" stroke-miterlimit="4.00" viewBox="0 0 894 94"><desc>SVG generated by Keynote</desc><defs></defs><g transform="matrix(1.00, 0.00, -0.00, -1.00, 0.0, 94.0)"><image xlink:href="../../7EE9DA2E-25FB-4D60-AEFD-14577AF3FD62/assets/00D94CCE7B533FAFF95647B89A54FAFC.png" width="891.00" height="91.00" transform="matrix(1.00, 0.00, -0.00, -1.00, 2.0, 92.0)"></image><text xml:space="preserve" font-family="HelveticaNeue-Bold" font-weight="bold" font-size="90.0" fill="#FEFFFE" transform="matrix(1.00, 0.00, -0.00, -1.00, 4.0, 24.0)">S</text><text xml:space="preserve" font-family="HelveticaNeue-Bold" font-weight="bold" font-size="90.0" fill="#FEFFFE" transform="matrix(1.00, 0.00, -0.00, -1.00, 62.4, 24.0)">t</text><text xml:space="preserve" font-family="HelveticaNeue-Bold" font-weight="bold" font-size="90.0" fill="#FEFFFE" transform="matrix(1.00, 0.00, -0.00, -1.00, 94.1, 24.0)">r</text><text xml:space="preserve" font-family="HelveticaNeue-Bold" font-weight="bold" font-size="90.0" fill="#FEFFFE" transform="matrix(1.00, 0.00, -0.00, -1.00, 127.5, 24.0)">e</text><text xml:space="preserve" font-family="HelveticaNeue-Bold" font-weight="bold" font-size="90.0" fill="#FEFFFE" transform="matrix(1.00, 0.00, -0.00, -1.00, 179.1, 24.0)">a</text><text xml:space="preserve" font-family="HelveticaNeue-Bold" font-weight="bold" font-size="90.0" fill="#FEFFFE" transform="matrix(1.00, 0.00, -0.00, -1.00, 230.8, 24.0)">m</text><text xml:space="preserve" font-family="HelveticaNeue-Bold" font-weight="bold" font-size="90.0" fill="#FEFFFE" transform="matrix(1.00, 0.00, -0.00, -1.00, 312.3, 24.0)"> </text><text xml:space="preserve" font-family="HelveticaNeue-Bold" font-weight="bold" font-size="90.0" fill="#FEFFFE" transform="matrix(1.00, 0.00, -0.00, -1.00, 337.4, 24.0)">m</text><text xml:space="preserve" font-family="HelveticaNeue-Bold" font-weight="bold" font-size="90.0" fill="#FEFFFE" transform="matrix(1.00, 0.00, -0.00, -1.00, 418.9, 24.0)">a</text><text xml:space="preserve" font-family="HelveticaNeue-Bold" font-weight="bold" font-size="90.0" fill="#FEFFFE" transform="matrix(1.00, 0.00, -0.00, -1.00, 470.6, 24.0)">n</text><text xml:space="preserve" font-family="HelveticaNeue-Bold" font-weight="bold" font-size="90.0" fill="#FEFFFE" transform="matrix(1.00, 0.00, -0.00, -1.00, 523.9, 24.0)">i</text><text xml:space="preserve" font-family="HelveticaNeue-Bold" font-weight="bold" font-size="90.0" fill="#FEFFFE" transform="matrix(1.00, 0.00, -0.00, -1.00, 547.1, 24.0)">p</text><text xml:space="preserve" font-family="HelveticaNeue-Bold" font-weight="bold" font-size="90.0" fill="#FEFFFE" transform="matrix(1.00, 0.00, -0.00, -1.00, 602.1, 24.0)">u</text><text xml:space="preserve" font-family="HelveticaNeue-Bold" font-weight="bold" font-size="90.0" fill="#FEFFFE" transform="matrix(1.00, 0.00, -0.00, -1.00, 655.5, 24.0)">l</text><text xml:space="preserve" font-family="HelveticaNeue-Bold" font-weight="bold" font-size="90.0" fill="#FEFFFE" transform="matrix(1.00, 0.00, -0.00, -1.00, 678.7, 24.0)">a</text><text xml:space="preserve" font-family="HelveticaNeue-Bold" font-weight="bold" font-size="90.0" fill="#FEFFFE" transform="matrix(1.00, 0.00, -0.00, -1.00, 730.4, 24.0)">t</text><text xml:space="preserve" font-family="HelveticaNeue-Bold" font-weight="bold" font-size="90.0" fill="#FEFFFE" transform="matrix(1.00, 0.00, -0.00, -1.00, 762.1, 24.0)">i</text><text xml:space="preserve" font-family="HelveticaNeue-Bold" font-weight="bold" font-size="90.0" fill="#FEFFFE" transform="matrix(1.00, 0.00, -0.00, -1.00, 785.3, 24.0)">o</text><text xml:space="preserve" font-family="HelveticaNeue-Bold" font-weight="bold" font-size="90.0" fill="#FEFFFE" transform="matrix(1.00, 0.00, -0.00, -1.00, 840.3, 24.0)">n</text></g></svg>