<?xml version="1.0" encoding="UTF-8" standalone="no"?><svg xmlns="http://www.w3.org/2000/svg" xmlns:xlink="http://www.w3.org/1999/xlink" clip-rule="evenodd" stroke-miterlimit="4.00" viewBox="0 0 1737 257"><desc>SVG generated by Keynote</desc><defs></defs><g transform="matrix(1.00, 0.00, -0.00, -1.00, 0.0, 257.0)"><image xlink:href="F3F9AE50FBF20F1AD91E0EB2C2EB5111.png" width="198.00" height="47.00" transform="matrix(1.00, 0.00, -0.00, -1.00, 1534.0, 161.0)"></image><g><clipPath id="clip-155"><path d="M 1517.3 88.3 L 1750.9 88.3 L 1750.9 189.8 L 1517.3 189.8 Z M 1517.3 88.3 "></path></clipPath><g clip-path="url(#clip-155)"><text xml:space="preserve" font-family="HelveticaNeue-Medium" font-size="52.0" fill="#EAEAEA" transform="matrix(1.00, 0.00, -0.00, -1.00, 1537.0, 121.0)">e</text><text xml:space="preserve" font-family="HelveticaNeue-Medium" font-size="52.0" fill="#EAEAEA" transform="matrix(1.00, 0.00, -0.00, -1.00, 1565.9, 121.0)">x</text><text xml:space="preserve" font-family="HelveticaNeue-Medium" font-size="52.0" fill="#EAEAEA" transform="matrix(1.00, 0.00, -0.00, -1.00, 1593.8, 121.0)">t</text><text xml:space="preserve" font-family="HelveticaNeue-Medium" font-size="52.0" fill="#EAEAEA" transform="matrix(1.00, 0.00, -0.00, -1.00, 1611.2, 121.0)">e</text><text xml:space="preserve" font-family="HelveticaNeue-Medium" font-size="52.0" fill="#EAEAEA" transform="matrix(1.00, 0.00, -0.00, -1.00, 1640.1, 121.0)">r</text><text xml:space="preserve" font-family="HelveticaNeue-Medium" font-size="52.0" fill="#EAEAEA" transform="matrix(1.00, 0.00, -0.00, -1.00, 1659.3, 121.0)">n</text><text xml:space="preserve" font-family="HelveticaNeue-Medium" font-size="52.0" fill="#EAEAEA" transform="matrix(1.00, 0.00, -0.00, -1.00, 1689.2, 121.0)">a</text><text xml:space="preserve" font-family="HelveticaNeue-Medium" font-size="52.0" fill="#EAEAEA" transform="matrix(1.00, 0.00, -0.00, -1.00, 1718.1, 121.0)">l</text></g></g><image xlink:href="0C4506A098D87A37BC0AEDD9B68C8DCD.png" width="126.00" height="47.00" transform="matrix(1.00, 0.00, -0.00, -1.00, 41.0, 193.0)"></image><g><clipPath id="clip-156"><path d="M -13.5 56.3 L 340.8 56.3 L 340.8 221.8 L -13.5 221.8 Z M -13.5 56.3 "></path></clipPath><g clip-path="url(#clip-156)"><text xml:space="preserve" font-family="HelveticaNeue-Medium" font-size="52.0" fill="#EAEAEA" transform="matrix(1.00, 0.00, -0.00, -1.00, 42.0, 153.0)">n</text><text xml:space="preserve" font-family="HelveticaNeue-Medium" font-size="52.0" fill="#EAEAEA" transform="matrix(1.00, 0.00, -0.00, -1.00, 71.8, 153.0)">o</text><text xml:space="preserve" font-family="HelveticaNeue-Medium" font-size="52.0" fill="#EAEAEA" transform="matrix(1.00, 0.00, -0.00, -1.00, 102.7, 153.0)">d</text><text xml:space="preserve" font-family="HelveticaNeue-Medium" font-size="52.0" fill="#EAEAEA" transform="matrix(1.00, 0.00, -0.00, -1.00, 134.5, 153.0)">e</text><text xml:space="preserve" font-family="HelveticaNeue-Medium" font-size="52.0" fill="#EAEAEA" transform="matrix(1.00, 0.00, -0.00, -1.00, 163.4, 153.0)"> </text></g></g><image xlink:href="113D9F609B85DDAB4FEAE342E49C7A1A.png" width="196.00" height="46.00" transform="matrix(1.00, 0.00, -0.00, -1.00, 5.0, 119.0)"></image><g><clipPath id="clip-157"><path d="M -13.5 56.3 L 340.8 56.3 L 340.8 221.8 L -13.5 221.8 Z M -13.5 56.3 "></path></clipPath><g clip-path="url(#clip-157)"><text xml:space="preserve" font-family="HelveticaNeue-Medium" font-size="52.0" fill="#EAEAEA" transform="matrix(1.00, 0.00, -0.00, -1.00, 6.0, 89.0)">p</text><text xml:space="preserve" font-family="HelveticaNeue-Medium" font-size="52.0" fill="#EAEAEA" transform="matrix(1.00, 0.00, -0.00, -1.00, 37.8, 89.0)">r</text><text xml:space="preserve" font-family="HelveticaNeue-Medium" font-size="52.0" fill="#EAEAEA" transform="matrix(1.00, 0.00, -0.00, -1.00, 55.1, 89.0)">o</text><text xml:space="preserve" font-family="HelveticaNeue-Medium" font-size="52.0" fill="#EAEAEA" transform="matrix(1.00, 0.00, -0.00, -1.00, 86.0, 89.0)">c</text><text xml:space="preserve" font-family="HelveticaNeue-Medium" font-size="52.0" fill="#EAEAEA" transform="matrix(1.00, 0.00, -0.00, -1.00, 114.9, 89.0)">e</text><text xml:space="preserve" font-family="HelveticaNeue-Medium" font-size="52.0" fill="#EAEAEA" transform="matrix(1.00, 0.00, -0.00, -1.00, 143.8, 89.0)">s</text><text xml:space="preserve" font-family="HelveticaNeue-Medium" font-size="52.0" fill="#EAEAEA" transform="matrix(1.00, 0.00, -0.00, -1.00, 170.8, 89.0)">s</text></g></g><g><clipPath id="clip-158"><path d="M 1103.3 17.1 L 1216.5 17.1 L 1216.5 230.6 L 1103.3 230.6 Z M 1103.3 17.1 "></path></clipPath><g clip-path="url(#clip-158)"><image xlink:href="4E30BD0558D61C40F01B396D37C7C0CC.png" width="111.00" height="211.00" transform="matrix(1.00, 0.00, -0.00, -1.00, 1104.3, 229.6)" opacity="0.50"></image><path d="M 83.7 29.1 C 102.9 67.8 102.9 130.6 83.7 169.4 C 64.6 208.1 33.5 208.1 14.4 169.4 C -4.8 130.6 -4.8 67.8 14.4 29.1 C 33.5 -9.7 64.6 -9.7 83.7 29.1 Z M 83.7 29.1 " fill="none" stroke="#ECAC0F" stroke-width="5.00" transform="matrix(1.00, 0.00, 0.00, -1.00, 1110.8, 225.1)"></path></g></g><g><clipPath id="clip-159"><path d="M 489.4 17.1 L 602.5 17.1 L 602.5 230.6 L 489.4 230.6 Z M 489.4 17.1 "></path></clipPath><g clip-path="url(#clip-159)"><image xlink:href="../../29C40E5D-2FC7-4C45-B08E-D2B8B96D9A8F/assets/4E30BD0558D61C40F01B396D37C7C0CC.png" width="111.00" height="211.00" transform="matrix(1.00, 0.00, -0.00, -1.00, 490.4, 229.6)" opacity="0.50"></image><path d="M 83.7 29.1 C 102.9 67.8 102.9 130.6 83.7 169.4 C 64.6 208.1 33.5 208.1 14.4 169.4 C -4.8 130.6 -4.8 67.8 14.4 29.1 C 33.5 -9.7 64.6 -9.7 83.7 29.1 Z M 83.7 29.1 " fill="none" stroke="#ECAC0F" stroke-width="5.00" transform="matrix(1.00, 0.00, 0.00, -1.00, 496.9, 225.1)"></path></g></g><g><clipPath id="clip-160"><path d="M 544.0 222.3 L 1165.5 222.3 L 1165.5 228.3 L 544.0 228.3 Z M 544.0 222.3 "></path></clipPath><g clip-path="url(#clip-160)"><path d="M 0.0 0.0 L 619.5 0.0 " fill="none" stroke="#ECAC0F" stroke-width="4.00" transform="matrix(1.00, 0.00, 0.00, -1.00, 545.0, 225.3)"></path></g></g><g><clipPath id="clip-161"><path d="M 544.0 24.3 L 1165.5 24.3 L 1165.5 30.3 L 544.0 30.3 Z M 544.0 24.3 "></path></clipPath><g clip-path="url(#clip-161)"><path d="M 0.0 0.0 L 619.5 0.0 " fill="none" stroke="#ECAC0F" stroke-width="4.00" transform="matrix(1.00, 0.00, 0.00, -1.00, 545.0, 27.3)"></path></g></g><g><clipPath id="clip-162"><path d="M 498.0 122.9 L 1211.5 122.9 L 1211.5 128.9 L 498.0 128.9 Z M 498.0 122.9 "></path></clipPath><g clip-path="url(#clip-162)"><path d="M 0.0 0.0 L 711.5 0.0 " fill="none" stroke="#ECAC0F" stroke-width="4.00" stroke-dasharray="24.0, 24.0" transform="matrix(1.00, 0.00, 0.00, -1.00, 499.0, 125.9)"></path></g></g><g><clipPath id="clip-163"><path d="M 1265.8 166.2 L 443.6 166.2 L 443.6 185.0 L 1265.8 185.0 Z M 1265.8 166.2 "></path></clipPath><g clip-path="url(#clip-163)"><path d="M 0.0 0.0 L 803.5 0.0 L 805.5 0.0 " fill="none" stroke="#FEE55E" stroke-width="4.00" transform="matrix(-1.00, 0.00, 0.00, 1.00, 1264.8, 175.6)"></path><path d="M 461.4 184.0 L 444.6 175.6 L 461.4 167.2 Z M 461.4 184.0 " fill="#FEE55E"></path></g></g><g><clipPath id="clip-164"><path d="M 1265.8 66.8 L 443.6 66.8 L 443.6 85.6 L 1265.8 85.6 Z M 1265.8 66.8 "></path></clipPath><g clip-path="url(#clip-164)"><path d="M 14.8 0.0 L 16.8 0.0 L 820.3 0.0 " fill="none" stroke="#FEE55E" stroke-width="4.00" transform="matrix(-1.00, 0.00, 0.00, 1.00, 1264.8, 76.2)"></path><path d="M 1248.0 67.8 L 1264.8 76.2 L 1248.0 84.6 Z M 1248.0 67.8 " fill="#FEE55E"></path></g></g><image xlink:href="A805B5B2514E88D7525106EDE13ECCD0.png" width="71.00" height="34.00" transform="matrix(1.00, 0.00, -0.00, -1.00, 1303.0, 193.0)"></image><g><clipPath id="clip-165"><path d="M 1291.6 143.0 L 1384.5 143.0 L 1384.5 211.2 L 1291.6 211.2 Z M 1291.6 143.0 "></path></clipPath><g clip-path="url(#clip-165)"><text xml:space="preserve" font-family="HelveticaNeue-Medium" font-size="34.0" fill="#EAEAEA" transform="matrix(1.00, 0.00, -0.00, -1.00, 1306.0, 166.0)">s</text><text xml:space="preserve" font-family="HelveticaNeue-Medium" font-size="34.0" fill="#EAEAEA" transform="matrix(1.00, 0.00, -0.00, -1.00, 1323.6, 166.0)">i</text><text xml:space="preserve" font-family="HelveticaNeue-Medium" font-size="34.0" fill="#EAEAEA" transform="matrix(1.00, 0.00, -0.00, -1.00, 1331.8, 166.0)">n</text><text xml:space="preserve" font-family="HelveticaNeue-Medium" font-size="34.0" fill="#EAEAEA" transform="matrix(1.00, 0.00, -0.00, -1.00, 1351.4, 166.0)">k</text></g></g><image xlink:href="80F8EE14F1127B24E4DFDF6E07D4CF73.png" width="113.00" height="28.00" transform="matrix(1.00, 0.00, -0.00, -1.00, 1282.0, 83.0)"></image><g><clipPath id="clip-166"><path d="M 1270.2 38.1 L 1405.9 38.1 L 1405.9 106.4 L 1270.2 106.4 Z M 1270.2 38.1 "></path></clipPath><g clip-path="url(#clip-166)"><text xml:space="preserve" font-family="HelveticaNeue-Medium" font-size="34.0" fill="#EAEAEA" transform="matrix(1.00, 0.00, -0.00, -1.00, 1285.0, 62.0)">s</text><text xml:space="preserve" font-family="HelveticaNeue-Medium" font-size="34.0" fill="#EAEAEA" transform="matrix(1.00, 0.00, -0.00, -1.00, 1302.6, 62.0)">o</text><text xml:space="preserve" font-family="HelveticaNeue-Medium" font-size="34.0" fill="#EAEAEA" transform="matrix(1.00, 0.00, -0.00, -1.00, 1322.8, 62.0)">u</text><text xml:space="preserve" font-family="HelveticaNeue-Medium" font-size="34.0" fill="#EAEAEA" transform="matrix(1.00, 0.00, -0.00, -1.00, 1342.3, 62.0)">r</text><text xml:space="preserve" font-family="HelveticaNeue-Medium" font-size="34.0" fill="#EAEAEA" transform="matrix(1.00, 0.00, -0.00, -1.00, 1353.7, 62.0)">c</text><text xml:space="preserve" font-family="HelveticaNeue-Medium" font-size="34.0" fill="#EAEAEA" transform="matrix(1.00, 0.00, -0.00, -1.00, 1372.6, 62.0)">e</text></g></g><image xlink:href="../../29C40E5D-2FC7-4C45-B08E-D2B8B96D9A8F/assets/A805B5B2514E88D7525106EDE13ECCD0.png" width="71.00" height="34.00" transform="matrix(1.00, 0.00, -0.00, -1.00, 337.0, 89.0)"></image><g><clipPath id="clip-167"><path d="M 324.9 38.1 L 417.8 38.1 L 417.8 106.4 L 324.9 106.4 Z M 324.9 38.1 "></path></clipPath><g clip-path="url(#clip-167)"><text xml:space="preserve" font-family="HelveticaNeue-Medium" font-size="34.0" fill="#EAEAEA" transform="matrix(1.00, 0.00, -0.00, -1.00, 340.0, 62.0)">s</text><text xml:space="preserve" font-family="HelveticaNeue-Medium" font-size="34.0" fill="#EAEAEA" transform="matrix(1.00, 0.00, -0.00, -1.00, 357.6, 62.0)">i</text><text xml:space="preserve" font-family="HelveticaNeue-Medium" font-size="34.0" fill="#EAEAEA" transform="matrix(1.00, 0.00, -0.00, -1.00, 365.8, 62.0)">n</text><text xml:space="preserve" font-family="HelveticaNeue-Medium" font-size="34.0" fill="#EAEAEA" transform="matrix(1.00, 0.00, -0.00, -1.00, 385.4, 62.0)">k</text></g></g><image xlink:href="../../29C40E5D-2FC7-4C45-B08E-D2B8B96D9A8F/assets/80F8EE14F1127B24E4DFDF6E07D4CF73.png" width="113.00" height="28.00" transform="matrix(1.00, 0.00, -0.00, -1.00, 315.0, 187.0)"></image><g><clipPath id="clip-168"><path d="M 303.5 143.0 L 439.3 143.0 L 439.3 211.2 L 303.5 211.2 Z M 303.5 143.0 "></path></clipPath><g clip-path="url(#clip-168)"><text xml:space="preserve" font-family="HelveticaNeue-Medium" font-size="34.0" fill="#EAEAEA" transform="matrix(1.00, 0.00, -0.00, -1.00, 318.0, 166.0)">s</text><text xml:space="preserve" font-family="HelveticaNeue-Medium" font-size="34.0" fill="#EAEAEA" transform="matrix(1.00, 0.00, -0.00, -1.00, 335.6, 166.0)">o</text><text xml:space="preserve" font-family="HelveticaNeue-Medium" font-size="34.0" fill="#EAEAEA" transform="matrix(1.00, 0.00, -0.00, -1.00, 355.8, 166.0)">u</text><text xml:space="preserve" font-family="HelveticaNeue-Medium" font-size="34.0" fill="#EAEAEA" transform="matrix(1.00, 0.00, -0.00, -1.00, 375.3, 166.0)">r</text><text xml:space="preserve" font-family="HelveticaNeue-Medium" font-size="34.0" fill="#EAEAEA" transform="matrix(1.00, 0.00, -0.00, -1.00, 386.7, 166.0)">c</text><text xml:space="preserve" font-family="HelveticaNeue-Medium" font-size="34.0" fill="#EAEAEA" transform="matrix(1.00, 0.00, -0.00, -1.00, 405.6, 166.0)">e</text></g></g><image xlink:href="A7DBA561A0E6970B39F64EB6944DF4FE.png" width="142.00" height="34.00" transform="matrix(1.00, 0.00, -0.00, -1.00, 301.0, 246.0)"></image><g><clipPath id="clip-169"><path d="M 288.4 195.4 L 454.4 195.4 L 454.4 263.7 L 288.4 263.7 Z M 288.4 195.4 "></path></clipPath><g clip-path="url(#clip-169)"><text xml:space="preserve" font-family="HelveticaNeue-Medium" font-size="34.0" fill="#EAEAEA" transform="matrix(1.00, 0.00, -0.00, -1.00, 303.0, 219.0)">r</text><text xml:space="preserve" font-family="HelveticaNeue-Medium" font-size="34.0" fill="#EAEAEA" transform="matrix(1.00, 0.00, -0.00, -1.00, 314.4, 219.0)">e</text><text xml:space="preserve" font-family="HelveticaNeue-Medium" font-size="34.0" fill="#EAEAEA" transform="matrix(1.00, 0.00, -0.00, -1.00, 333.3, 219.0)">a</text><text xml:space="preserve" font-family="HelveticaNeue-Medium" font-size="34.0" fill="#EAEAEA" transform="matrix(1.00, 0.00, -0.00, -1.00, 352.2, 219.0)">d</text><text xml:space="preserve" font-family="HelveticaNeue-Medium" font-size="34.0" fill="#EAEAEA" transform="matrix(1.00, 0.00, -0.00, -1.00, 372.9, 219.0)">a</text><text xml:space="preserve" font-family="HelveticaNeue-Medium" font-size="34.0" fill="#EAEAEA" transform="matrix(1.00, 0.00, -0.00, -1.00, 391.8, 219.0)">b</text><text xml:space="preserve" font-family="HelveticaNeue-Medium" font-size="34.0" fill="#EAEAEA" transform="matrix(1.00, 0.00, -0.00, -1.00, 412.6, 219.0)">l</text><text xml:space="preserve" font-family="HelveticaNeue-Medium" font-size="34.0" fill="#EAEAEA" transform="matrix(1.00, 0.00, -0.00, -1.00, 420.8, 219.0)">e</text></g></g><image xlink:href="5025D4AA0D19D923E240E9BD819BC234.png" width="151.00" height="34.00" transform="matrix(1.00, 0.00, -0.00, -1.00, 296.0, 40.0)"></image><g><clipPath id="clip-170"><path d="M 284.9 -10.7 L 457.8 -10.7 L 457.8 57.6 L 284.9 57.6 Z M 284.9 -10.7 "></path></clipPath><g clip-path="url(#clip-170)"><text xml:space="preserve" font-family="HelveticaNeue-Medium" font-size="34.0" fill="#EAEAEA" transform="matrix(1.00, 0.00, -0.00, -1.00, 300.0, 13.0)">w</text><text xml:space="preserve" font-family="HelveticaNeue-Medium" font-size="34.0" fill="#EAEAEA" transform="matrix(1.00, 0.00, -0.00, -1.00, 326.5, 13.0)">r</text><text xml:space="preserve" font-family="HelveticaNeue-Medium" font-size="34.0" fill="#EAEAEA" transform="matrix(1.00, 0.00, -0.00, -1.00, 338.4, 13.0)">i</text><text xml:space="preserve" font-family="HelveticaNeue-Medium" font-size="34.0" fill="#EAEAEA" transform="matrix(1.00, 0.00, -0.00, -1.00, 346.6, 13.0)">t</text><text xml:space="preserve" font-family="HelveticaNeue-Medium" font-size="34.0" fill="#EAEAEA" transform="matrix(1.00, 0.00, -0.00, -1.00, 357.9, 13.0)">e</text><text xml:space="preserve" font-family="HelveticaNeue-Medium" font-size="34.0" fill="#EAEAEA" transform="matrix(1.00, 0.00, -0.00, -1.00, 376.8, 13.0)">a</text><text xml:space="preserve" font-family="HelveticaNeue-Medium" font-size="34.0" fill="#EAEAEA" transform="matrix(1.00, 0.00, -0.00, -1.00, 395.7, 13.0)">b</text><text xml:space="preserve" font-family="HelveticaNeue-Medium" font-size="34.0" fill="#EAEAEA" transform="matrix(1.00, 0.00, -0.00, -1.00, 416.5, 13.0)">l</text><text xml:space="preserve" font-family="HelveticaNeue-Medium" font-size="34.0" fill="#EAEAEA" transform="matrix(1.00, 0.00, -0.00, -1.00, 424.7, 13.0)">e</text></g></g></g></svg>