<?xml version="1.0" encoding="UTF-8" standalone="no"?><svg xmlns="http://www.w3.org/2000/svg" xmlns:xlink="http://www.w3.org/1999/xlink" clip-rule="evenodd" stroke-miterlimit="4.00" viewBox="0 0 90 153"><desc>SVG generated by Keynote</desc><defs></defs><g transform="matrix(1.00, 0.00, -0.00, -1.00, 0.0, 153.0)"><image xlink:href="69B44E6F8A443D7DE0A40A1B6A046577.png" width="87.00" height="146.00" transform="matrix(1.00, 0.00, -0.00, -1.00, 1.5, 148.0)" opacity="0.50"></image><g><clipPath id="clip-151"><path d="M 5.5 146.0 L 84.6 146.0 L 84.6 7.5 L 5.5 7.5 Z M 5.5 146.0 "></path></clipPath><g clip-path="url(#clip-151)"><image xlink:href="../../EED742DE-3384-4455-8BF3-829328D028E0/assets/057B8BF53FF5FC4867FB3F32B95B3DC1.jpeg" width="394.00" height="394.00" transform="matrix(0.65, 0.00, -0.00, -0.65, 5.5, 146.0)"></image><path d="M 5.5 146.0 L 84.6 146.0 L 84.6 7.5 L 5.5 7.5 Z M 5.5 146.0 " fill="#14A3FF" fill-opacity="0.60"></path></g></g><image xlink:href="79D48B12E8DB90DDA1ADEBEC55251DF3.png" width="26.00" height="46.00" transform="matrix(1.00, 0.00, -0.00, -1.00, 32.0, 94.0)"></image><g><clipPath id="clip-152"><path d="M -6.1 7.5 L 96.1 7.5 L 96.1 146.0 L -6.1 146.0 Z M -6.1 7.5 "></path></clipPath><g clip-path="url(#clip-152)"><text xml:space="preserve" font-family="HelveticaNeue-Medium" font-size="42.0" fill="#FEFFFE" transform="matrix(1.00, 0.00, -0.00, -1.00, 33.0, 61.0)">:</text><text xml:space="preserve" font-family="HelveticaNeue-Medium" font-size="42.0" fill="#FEFFFE" transform="matrix(1.00, 0.00, -0.00, -1.00, 44.7, 61.0)">)</text></g></g></g></svg>