<?xml version="1.0" encoding="UTF-8" standalone="no"?><svg xmlns="http://www.w3.org/2000/svg" xmlns:xlink="http://www.w3.org/1999/xlink" clip-rule="evenodd" stroke-miterlimit="4.00" viewBox="0 0 1920 1080"><desc>SVG generated by Keynote</desc><defs></defs><g transform="matrix(1.00, 0.00, -0.00, -1.00, 0.0, 1080.0)"><g><clipPath id="clip-147"><path d="M 0.0 1080.0 L 1920.0 1080.0 L 1920.0 0.0 L 0.0 0.0 Z M 0.0 1080.0 "></path></clipPath><g clip-path="url(#clip-147)"><image xlink:href="../../530E9AF0-43D7-4833-AF5F-F344C0C97C42/assets/3DC080932D3238CC8EBF0C8253C8A9A6.jpeg" width="1365.00" height="728.00" transform="matrix(1.48, 0.00, -0.00, -1.48, -52.5, 1080.0)"></image></g></g><image xlink:href="0C8AAEF0E96007D6ED85706E76C6A484.png" width="851.00" height="91.00" transform="matrix(1.00, 0.00, -0.00, -1.00, 535.0, 995.0)"></image><text xml:space="preserve" font-family="HelveticaNeue-Bold" font-weight="bold" font-size="90.0" fill="#FEFFFE" transform="matrix(1.00, 0.00, -0.00, -1.00, 536.0, 927.0)">O</text><text xml:space="preserve" font-family="HelveticaNeue-Bold" font-weight="bold" font-size="90.0" fill="#FEFFFE" transform="matrix(1.00, 0.00, -0.00, -1.00, 606.0, 927.0)">p</text><text xml:space="preserve" font-family="HelveticaNeue-Bold" font-weight="bold" font-size="90.0" fill="#FEFFFE" transform="matrix(1.00, 0.00, -0.00, -1.00, 661.0, 927.0)">e</text><text xml:space="preserve" font-family="HelveticaNeue-Bold" font-weight="bold" font-size="90.0" fill="#FEFFFE" transform="matrix(1.00, 0.00, -0.00, -1.00, 712.7, 927.0)">r</text><text xml:space="preserve" font-family="HelveticaNeue-Bold" font-weight="bold" font-size="90.0" fill="#FEFFFE" transform="matrix(1.00, 0.00, -0.00, -1.00, 747.7, 927.0)">a</text><text xml:space="preserve" font-family="HelveticaNeue-Bold" font-weight="bold" font-size="90.0" fill="#FEFFFE" transform="matrix(1.00, 0.00, -0.00, -1.00, 799.3, 927.0)">t</text><text xml:space="preserve" font-family="HelveticaNeue-Bold" font-weight="bold" font-size="90.0" fill="#FEFFFE" transform="matrix(1.00, 0.00, -0.00, -1.00, 831.0, 927.0)">i</text><text xml:space="preserve" font-family="HelveticaNeue-Bold" font-weight="bold" font-size="90.0" fill="#FEFFFE" transform="matrix(1.00, 0.00, -0.00, -1.00, 854.2, 927.0)">o</text><text xml:space="preserve" font-family="HelveticaNeue-Bold" font-weight="bold" font-size="90.0" fill="#FEFFFE" transform="matrix(1.00, 0.00, -0.00, -1.00, 909.2, 927.0)">n</text><text xml:space="preserve" font-family="HelveticaNeue-Bold" font-weight="bold" font-size="90.0" fill="#FEFFFE" transform="matrix(1.00, 0.00, -0.00, -1.00, 962.6, 927.0)">s</text><text xml:space="preserve" font-family="HelveticaNeue-Bold" font-weight="bold" font-size="90.0" fill="#FEFFFE" transform="matrix(1.00, 0.00, -0.00, -1.00, 1010.9, 927.0)"> </text><text xml:space="preserve" font-family="HelveticaNeue-Bold" font-weight="bold" font-size="90.0" fill="#FEFFFE" transform="matrix(1.00, 0.00, -0.00, -1.00, 1036.0, 927.0)">/</text><text xml:space="preserve" font-family="HelveticaNeue-Bold" font-weight="bold" font-size="90.0" fill="#FEFFFE" transform="matrix(1.00, 0.00, -0.00, -1.00, 1069.3, 927.0)"> </text><text xml:space="preserve" font-family="HelveticaNeue-Bold" font-weight="bold" font-size="90.0" fill="#FEFFFE" transform="matrix(1.00, 0.00, -0.00, -1.00, 1094.4, 927.0)">E</text><text xml:space="preserve" font-family="HelveticaNeue-Bold" font-weight="bold" font-size="90.0" fill="#FEFFFE" transform="matrix(1.00, 0.00, -0.00, -1.00, 1152.7, 927.0)">v</text><text xml:space="preserve" font-family="HelveticaNeue-Bold" font-weight="bold" font-size="90.0" fill="#FEFFFE" transform="matrix(1.00, 0.00, -0.00, -1.00, 1199.5, 927.0)">e</text><text xml:space="preserve" font-family="HelveticaNeue-Bold" font-weight="bold" font-size="90.0" fill="#FEFFFE" transform="matrix(1.00, 0.00, -0.00, -1.00, 1251.1, 927.0)">n</text><text xml:space="preserve" font-family="HelveticaNeue-Bold" font-weight="bold" font-size="90.0" fill="#FEFFFE" transform="matrix(1.00, 0.00, -0.00, -1.00, 1304.5, 927.0)">t</text><text xml:space="preserve" font-family="HelveticaNeue-Bold" font-weight="bold" font-size="90.0" fill="#FEFFFE" transform="matrix(1.00, 0.00, -0.00, -1.00, 1336.2, 927.0)">s</text><image xlink:href="FB9B02390EB47B8A8B4C487EFDE9DABE.png" width="21.00" height="21.00" transform="matrix(1.00, 0.00, -0.00, -1.00, 115.0, 687.0)"></image><text xml:space="preserve" font-family="HelveticaNeue-Medium" font-size="34.5" fill="#EAEAEA" transform="matrix(1.00, 0.00, -0.00, -1.00, 117.0, 666.5)">•</text><image xlink:href="463A0B3838CCA6013BE8CC433EFACC1B.png" width="217.00" height="42.00" transform="matrix(1.00, 0.00, -0.00, -1.00, 159.0, 697.0)"></image><text xml:space="preserve" font-family="HelveticaNeue-Medium" font-size="46.0" fill="#EAEAEA" transform="matrix(1.00, 0.00, -0.00, -1.00, 160.0, 662.0)">R</text><text xml:space="preserve" font-family="HelveticaNeue-Medium" font-size="46.0" fill="#EAEAEA" transform="matrix(1.00, 0.00, -0.00, -1.00, 192.4, 662.0)">e</text><text xml:space="preserve" font-family="HelveticaNeue-Medium" font-size="46.0" fill="#EAEAEA" transform="matrix(1.00, 0.00, -0.00, -1.00, 218.0, 662.0)">a</text><text xml:space="preserve" font-family="HelveticaNeue-Medium" font-size="46.0" fill="#EAEAEA" transform="matrix(1.00, 0.00, -0.00, -1.00, 243.5, 662.0)">d</text><text xml:space="preserve" font-family="HelveticaNeue-Medium" font-size="46.0" fill="#EAEAEA" transform="matrix(1.00, 0.00, -0.00, -1.00, 271.6, 662.0)">a</text><text xml:space="preserve" font-family="HelveticaNeue-Medium" font-size="46.0" fill="#EAEAEA" transform="matrix(1.00, 0.00, -0.00, -1.00, 297.2, 662.0)">b</text><text xml:space="preserve" font-family="HelveticaNeue-Medium" font-size="46.0" fill="#EAEAEA" transform="matrix(1.00, 0.00, -0.00, -1.00, 325.3, 662.0)">l</text><text xml:space="preserve" font-family="HelveticaNeue-Medium" font-size="46.0" fill="#EAEAEA" transform="matrix(1.00, 0.00, -0.00, -1.00, 336.4, 662.0)">e</text><text xml:space="preserve" font-family="HelveticaNeue-Medium" font-size="46.0" fill="#EAEAEA" transform="matrix(1.00, 0.00, -0.00, -1.00, 362.0, 662.0)">:</text><text xml:space="preserve" font-family="HelveticaNeue-Medium" font-size="46.0" fill="#EAEAEA" transform="matrix(1.00, 0.00, -0.00, -1.00, 374.8, 662.0)"> </text><image xlink:href="../../930B4517-C13D-44D6-A136-AAA8F23FE70D/assets/FB9B02390EB47B8A8B4C487EFDE9DABE.png" width="21.00" height="21.00" transform="matrix(1.00, 0.00, -0.00, -1.00, 158.0, 572.0)"></image><text xml:space="preserve" font-family="HelveticaNeue-Medium" font-size="34.5" fill="#EAEAEA" transform="matrix(1.00, 0.00, -0.00, -1.00, 160.0, 551.5)">•</text><image xlink:href="01D2A2062BC01ED0305E842A4DD697D9.png" width="1397.00" height="52.00" transform="matrix(1.00, 0.00, -0.00, -1.00, 202.0, 583.0)"></image><text xml:space="preserve" font-family="HelveticaNeue-Medium" font-size="46.0" fill="#EAEAEA" transform="matrix(1.00, 0.00, -0.00, -1.00, 203.0, 547.0)">‘</text><text xml:space="preserve" font-family="HelveticaNeue-Medium" font-size="46.0" fill="#EAEAEA" transform="matrix(1.00, 0.00, -0.00, -1.00, 215.8, 547.0)">d</text><text xml:space="preserve" font-family="HelveticaNeue-Medium" font-size="46.0" fill="#EAEAEA" transform="matrix(1.00, 0.00, -0.00, -1.00, 243.9, 547.0)">a</text><text xml:space="preserve" font-family="HelveticaNeue-Medium" font-size="46.0" fill="#EAEAEA" transform="matrix(1.00, 0.00, -0.00, -1.00, 269.5, 547.0)">t</text><text xml:space="preserve" font-family="HelveticaNeue-Medium" font-size="46.0" fill="#EAEAEA" transform="matrix(1.00, 0.00, -0.00, -1.00, 284.8, 547.0)">a</text><text xml:space="preserve" font-family="HelveticaNeue-Medium" font-size="46.0" fill="#EAEAEA" transform="matrix(1.00, 0.00, -0.00, -1.00, 310.4, 547.0)">’</text><text xml:space="preserve" font-family="HelveticaNeue-Medium" font-size="46.0" fill="#EAEAEA" transform="matrix(1.00, 0.00, -0.00, -1.00, 323.2, 547.0)">,</text><text xml:space="preserve" font-family="HelveticaNeue-Medium" font-size="46.0" fill="#EAEAEA" transform="matrix(1.00, 0.00, -0.00, -1.00, 335.9, 547.0)"> </text><text xml:space="preserve" font-family="HelveticaNeue-Medium" font-size="46.0" fill="#EAEAEA" transform="matrix(1.00, 0.00, -0.00, -1.00, 348.7, 547.0)">‘</text><text xml:space="preserve" font-family="HelveticaNeue-Medium" font-size="46.0" fill="#EAEAEA" transform="matrix(1.00, 0.00, -0.00, -1.00, 361.5, 547.0)">c</text><text xml:space="preserve" font-family="HelveticaNeue-Medium" font-size="46.0" fill="#EAEAEA" transform="matrix(1.00, 0.00, -0.00, -1.00, 387.1, 547.0)">l</text><text xml:space="preserve" font-family="HelveticaNeue-Medium" font-size="46.0" fill="#EAEAEA" transform="matrix(1.00, 0.00, -0.00, -1.00, 398.2, 547.0)">o</text><text xml:space="preserve" font-family="HelveticaNeue-Medium" font-size="46.0" fill="#EAEAEA" transform="matrix(1.00, 0.00, -0.00, -1.00, 425.5, 547.0)">s</text><text xml:space="preserve" font-family="HelveticaNeue-Medium" font-size="46.0" fill="#EAEAEA" transform="matrix(1.00, 0.00, -0.00, -1.00, 449.3, 547.0)">e</text><text xml:space="preserve" font-family="HelveticaNeue-Medium" font-size="46.0" fill="#EAEAEA" transform="matrix(1.00, 0.00, -0.00, -1.00, 474.9, 547.0)">’</text><text xml:space="preserve" font-family="HelveticaNeue-Medium" font-size="46.0" fill="#EAEAEA" transform="matrix(1.00, 0.00, -0.00, -1.00, 487.7, 547.0)">,</text><text xml:space="preserve" font-family="HelveticaNeue-Medium" font-size="46.0" fill="#EAEAEA" transform="matrix(1.00, 0.00, -0.00, -1.00, 500.5, 547.0)"> </text><text xml:space="preserve" font-family="HelveticaNeue-Medium" font-size="46.0" fill="#EAEAEA" transform="matrix(1.00, 0.00, -0.00, -1.00, 513.3, 547.0)">’</text><text xml:space="preserve" font-family="HelveticaNeue-Medium" font-size="46.0" fill="#EAEAEA" transform="matrix(1.00, 0.00, -0.00, -1.00, 526.1, 547.0)">e</text><text xml:space="preserve" font-family="HelveticaNeue-Medium" font-size="46.0" fill="#EAEAEA" transform="matrix(1.00, 0.00, -0.00, -1.00, 551.6, 547.0)">n</text><text xml:space="preserve" font-family="HelveticaNeue-Medium" font-size="46.0" fill="#EAEAEA" transform="matrix(1.00, 0.00, -0.00, -1.00, 578.0, 547.0)">d</text><text xml:space="preserve" font-family="HelveticaNeue-Medium" font-size="46.0" fill="#EAEAEA" transform="matrix(1.00, 0.00, -0.00, -1.00, 606.1, 547.0)">’</text><text xml:space="preserve" font-family="HelveticaNeue-Medium" font-size="46.0" fill="#EAEAEA" transform="matrix(1.00, 0.00, -0.00, -1.00, 618.9, 547.0)">,</text><text xml:space="preserve" font-family="HelveticaNeue-Medium" font-size="46.0" fill="#EAEAEA" transform="matrix(1.00, 0.00, -0.00, -1.00, 631.7, 547.0)"> </text><text xml:space="preserve" font-family="HelveticaNeue-Medium" font-size="46.0" fill="#EAEAEA" transform="matrix(1.00, 0.00, -0.00, -1.00, 644.5, 547.0)">‘</text><text xml:space="preserve" font-family="HelveticaNeue-Medium" font-size="46.0" fill="#EAEAEA" transform="matrix(1.00, 0.00, -0.00, -1.00, 657.3, 547.0)">e</text><text xml:space="preserve" font-family="HelveticaNeue-Medium" font-size="46.0" fill="#EAEAEA" transform="matrix(1.00, 0.00, -0.00, -1.00, 682.9, 547.0)">r</text><text xml:space="preserve" font-family="HelveticaNeue-Medium" font-size="46.0" fill="#EAEAEA" transform="matrix(1.00, 0.00, -0.00, -1.00, 699.1, 547.0)">r</text><text xml:space="preserve" font-family="HelveticaNeue-Medium" font-size="46.0" fill="#EAEAEA" transform="matrix(1.00, 0.00, -0.00, -1.00, 714.4, 547.0)">o</text><text xml:space="preserve" font-family="HelveticaNeue-Medium" font-size="46.0" fill="#EAEAEA" transform="matrix(1.00, 0.00, -0.00, -1.00, 741.7, 547.0)">r</text><text xml:space="preserve" font-family="HelveticaNeue-Medium" font-size="46.0" fill="#EAEAEA" transform="matrix(1.00, 0.00, -0.00, -1.00, 757.9, 547.0)">’</text><text xml:space="preserve" font-family="HelveticaNeue-Medium" font-size="46.0" fill="#EAEAEA" transform="matrix(1.00, 0.00, -0.00, -1.00, 770.7, 547.0)">,</text><text xml:space="preserve" font-family="HelveticaNeue-Medium" font-size="46.0" fill="#EAEAEA" transform="matrix(1.00, 0.00, -0.00, -1.00, 783.5, 547.0)"> </text><text xml:space="preserve" font-family="HelveticaNeue-Medium" font-size="46.0" fill="#EAEAEA" transform="matrix(1.00, 0.00, -0.00, -1.00, 796.3, 547.0)">.</text><text xml:space="preserve" font-family="HelveticaNeue-Medium" font-size="46.0" fill="#EAEAEA" transform="matrix(1.00, 0.00, -0.00, -1.00, 809.1, 547.0)">p</text><text xml:space="preserve" font-family="HelveticaNeue-Medium" font-size="46.0" fill="#EAEAEA" transform="matrix(1.00, 0.00, -0.00, -1.00, 837.2, 547.0)">i</text><text xml:space="preserve" font-family="HelveticaNeue-Medium" font-size="46.0" fill="#EAEAEA" transform="matrix(1.00, 0.00, -0.00, -1.00, 848.2, 547.0)">p</text><text xml:space="preserve" font-family="HelveticaNeue-Medium" font-size="46.0" fill="#EAEAEA" transform="matrix(1.00, 0.00, -0.00, -1.00, 876.3, 547.0)">e</text><text xml:space="preserve" font-family="HelveticaNeue-Medium" font-size="46.0" fill="#EAEAEA" transform="matrix(1.00, 0.00, -0.00, -1.00, 901.9, 547.0)">(</text><text xml:space="preserve" font-family="HelveticaNeue-Medium" font-size="46.0" fill="#EAEAEA" transform="matrix(1.00, 0.00, -0.00, -1.00, 914.7, 547.0)">d</text><text xml:space="preserve" font-family="HelveticaNeue-Medium" font-size="46.0" fill="#EAEAEA" transform="matrix(1.00, 0.00, -0.00, -1.00, 942.8, 547.0)">e</text><text xml:space="preserve" font-family="HelveticaNeue-Medium" font-size="46.0" fill="#EAEAEA" transform="matrix(1.00, 0.00, -0.00, -1.00, 968.4, 547.0)">s</text><text xml:space="preserve" font-family="HelveticaNeue-Medium" font-size="46.0" fill="#EAEAEA" transform="matrix(1.00, 0.00, -0.00, -1.00, 992.3, 547.0)">t</text><text xml:space="preserve" font-family="HelveticaNeue-Medium" font-size="46.0" fill="#EAEAEA" transform="matrix(1.00, 0.00, -0.00, -1.00, 1007.6, 547.0)">i</text><text xml:space="preserve" font-family="HelveticaNeue-Medium" font-size="46.0" fill="#EAEAEA" transform="matrix(1.00, 0.00, -0.00, -1.00, 1018.7, 547.0)">n</text><text xml:space="preserve" font-family="HelveticaNeue-Medium" font-size="46.0" fill="#EAEAEA" transform="matrix(1.00, 0.00, -0.00, -1.00, 1045.1, 547.0)">a</text><text xml:space="preserve" font-family="HelveticaNeue-Medium" font-size="46.0" fill="#EAEAEA" transform="matrix(1.00, 0.00, -0.00, -1.00, 1070.7, 547.0)">t</text><text xml:space="preserve" font-family="HelveticaNeue-Medium" font-size="46.0" fill="#EAEAEA" transform="matrix(1.00, 0.00, -0.00, -1.00, 1086.0, 547.0)">i</text><text xml:space="preserve" font-family="HelveticaNeue-Medium" font-size="46.0" fill="#EAEAEA" transform="matrix(1.00, 0.00, -0.00, -1.00, 1097.1, 547.0)">o</text><text xml:space="preserve" font-family="HelveticaNeue-Medium" font-size="46.0" fill="#EAEAEA" transform="matrix(1.00, 0.00, -0.00, -1.00, 1124.3, 547.0)">n</text><text xml:space="preserve" font-family="HelveticaNeue-Medium" font-size="46.0" fill="#EAEAEA" transform="matrix(1.00, 0.00, -0.00, -1.00, 1150.7, 547.0)">)</text><text xml:space="preserve" font-family="HelveticaNeue-Medium" font-size="46.0" fill="#EAEAEA" transform="matrix(1.00, 0.00, -0.00, -1.00, 1163.5, 547.0)">,</text><text xml:space="preserve" font-family="HelveticaNeue-Medium" font-size="46.0" fill="#EAEAEA" transform="matrix(1.00, 0.00, -0.00, -1.00, 1176.3, 547.0)"> </text><text xml:space="preserve" font-family="HelveticaNeue-Medium" font-size="46.0" fill="#EAEAEA" transform="matrix(1.00, 0.00, -0.00, -1.00, 1189.1, 547.0)">.</text><text xml:space="preserve" font-family="HelveticaNeue-Medium" font-size="46.0" fill="#EAEAEA" transform="matrix(1.00, 0.00, -0.00, -1.00, 1201.9, 547.0)">s</text><text xml:space="preserve" font-family="HelveticaNeue-Medium" font-size="46.0" fill="#EAEAEA" transform="matrix(1.00, 0.00, -0.00, -1.00, 1225.8, 547.0)">e</text><text xml:space="preserve" font-family="HelveticaNeue-Medium" font-size="46.0" fill="#EAEAEA" transform="matrix(1.00, 0.00, -0.00, -1.00, 1251.3, 547.0)">t</text><text xml:space="preserve" font-family="HelveticaNeue-Medium" font-size="46.0" fill="#EAEAEA" transform="matrix(1.00, 0.00, -0.00, -1.00, 1266.7, 547.0)">E</text><text xml:space="preserve" font-family="HelveticaNeue-Medium" font-size="46.0" fill="#EAEAEA" transform="matrix(1.00, 0.00, -0.00, -1.00, 1295.6, 547.0)">n</text><text xml:space="preserve" font-family="HelveticaNeue-Medium" font-size="46.0" fill="#EAEAEA" transform="matrix(1.00, 0.00, -0.00, -1.00, 1322.0, 547.0)">c</text><text xml:space="preserve" font-family="HelveticaNeue-Medium" font-size="46.0" fill="#EAEAEA" transform="matrix(1.00, 0.00, -0.00, -1.00, 1347.6, 547.0)">o</text><text xml:space="preserve" font-family="HelveticaNeue-Medium" font-size="46.0" fill="#EAEAEA" transform="matrix(1.00, 0.00, -0.00, -1.00, 1374.9, 547.0)">d</text><text xml:space="preserve" font-family="HelveticaNeue-Medium" font-size="46.0" fill="#EAEAEA" transform="matrix(1.00, 0.00, -0.00, -1.00, 1403.0, 547.0)">i</text><text xml:space="preserve" font-family="HelveticaNeue-Medium" font-size="46.0" fill="#EAEAEA" transform="matrix(1.00, 0.00, -0.00, -1.00, 1414.1, 547.0)">n</text><text xml:space="preserve" font-family="HelveticaNeue-Medium" font-size="46.0" fill="#EAEAEA" transform="matrix(1.00, 0.00, -0.00, -1.00, 1440.5, 547.0)">g</text><text xml:space="preserve" font-family="HelveticaNeue-Medium" font-size="46.0" fill="#EAEAEA" transform="matrix(1.00, 0.00, -0.00, -1.00, 1467.8, 547.0)">(</text><text xml:space="preserve" font-family="HelveticaNeue-Medium" font-size="46.0" fill="#EAEAEA" transform="matrix(1.00, 0.00, -0.00, -1.00, 1480.6, 547.0)">)</text><text xml:space="preserve" font-family="HelveticaNeue-Medium" font-size="46.0" fill="#EAEAEA" transform="matrix(1.00, 0.00, -0.00, -1.00, 1493.3, 547.0)">,</text><text xml:space="preserve" font-family="HelveticaNeue-Medium" font-size="46.0" fill="#EAEAEA" transform="matrix(1.00, 0.00, -0.00, -1.00, 1506.1, 547.0)"> </text><text xml:space="preserve" font-family="HelveticaNeue-Medium" font-size="46.0" fill="#EAEAEA" transform="matrix(1.00, 0.00, -0.00, -1.00, 1518.9, 547.0)">e</text><text xml:space="preserve" font-family="HelveticaNeue-Medium" font-size="46.0" fill="#EAEAEA" transform="matrix(1.00, 0.00, -0.00, -1.00, 1544.5, 547.0)">t</text><text xml:space="preserve" font-family="HelveticaNeue-Medium" font-size="46.0" fill="#EAEAEA" transform="matrix(1.00, 0.00, -0.00, -1.00, 1559.8, 547.0)">c</text><text xml:space="preserve" font-family="HelveticaNeue-Medium" font-size="46.0" fill="#EAEAEA" transform="matrix(1.00, 0.00, -0.00, -1.00, 1585.4, 547.0)">.</text><text xml:space="preserve" font-family="HelveticaNeue-Medium" font-size="46.0" fill="#EAEAEA" transform="matrix(1.00, 0.00, -0.00, -1.00, 1598.2, 547.0)"> </text><image xlink:href="../../930B4517-C13D-44D6-A136-AAA8F23FE70D/assets/FB9B02390EB47B8A8B4C487EFDE9DABE.png" width="21.00" height="21.00" transform="matrix(1.00, 0.00, -0.00, -1.00, 115.0, 457.0)"></image><text xml:space="preserve" font-family="HelveticaNeue-Medium" font-size="34.5" fill="#EAEAEA" transform="matrix(1.00, 0.00, -0.00, -1.00, 117.0, 436.5)">•</text><image xlink:href="CD7A4433B3782ED80E1FBB56105760DF.png" width="219.00" height="42.00" transform="matrix(1.00, 0.00, -0.00, -1.00, 156.0, 467.0)"></image><text xml:space="preserve" font-family="HelveticaNeue-Medium" font-size="46.0" fill="#EAEAEA" transform="matrix(1.00, 0.00, -0.00, -1.00, 160.0, 432.0)">W</text><text xml:space="preserve" font-family="HelveticaNeue-Medium" font-size="46.0" fill="#EAEAEA" transform="matrix(1.00, 0.00, -0.00, -1.00, 202.6, 432.0)">r</text><text xml:space="preserve" font-family="HelveticaNeue-Medium" font-size="46.0" fill="#EAEAEA" transform="matrix(1.00, 0.00, -0.00, -1.00, 218.8, 432.0)">i</text><text xml:space="preserve" font-family="HelveticaNeue-Medium" font-size="46.0" fill="#EAEAEA" transform="matrix(1.00, 0.00, -0.00, -1.00, 229.9, 432.0)">t</text><text xml:space="preserve" font-family="HelveticaNeue-Medium" font-size="46.0" fill="#EAEAEA" transform="matrix(1.00, 0.00, -0.00, -1.00, 245.2, 432.0)">e</text><text xml:space="preserve" font-family="HelveticaNeue-Medium" font-size="46.0" fill="#EAEAEA" transform="matrix(1.00, 0.00, -0.00, -1.00, 270.8, 432.0)">a</text><text xml:space="preserve" font-family="HelveticaNeue-Medium" font-size="46.0" fill="#EAEAEA" transform="matrix(1.00, 0.00, -0.00, -1.00, 296.3, 432.0)">b</text><text xml:space="preserve" font-family="HelveticaNeue-Medium" font-size="46.0" fill="#EAEAEA" transform="matrix(1.00, 0.00, -0.00, -1.00, 324.4, 432.0)">l</text><text xml:space="preserve" font-family="HelveticaNeue-Medium" font-size="46.0" fill="#EAEAEA" transform="matrix(1.00, 0.00, -0.00, -1.00, 335.5, 432.0)">e</text><text xml:space="preserve" font-family="HelveticaNeue-Medium" font-size="46.0" fill="#EAEAEA" transform="matrix(1.00, 0.00, -0.00, -1.00, 361.1, 432.0)">:</text><text xml:space="preserve" font-family="HelveticaNeue-Medium" font-size="46.0" fill="#EAEAEA" transform="matrix(1.00, 0.00, -0.00, -1.00, 373.9, 432.0)"> </text><image xlink:href="../../930B4517-C13D-44D6-A136-AAA8F23FE70D/assets/FB9B02390EB47B8A8B4C487EFDE9DABE.png" width="21.00" height="21.00" transform="matrix(1.00, 0.00, -0.00, -1.00, 158.0, 342.0)"></image><text xml:space="preserve" font-family="HelveticaNeue-Medium" font-size="34.5" fill="#EAEAEA" transform="matrix(1.00, 0.00, -0.00, -1.00, 160.0, 321.5)">•</text><image xlink:href="CFAA17091C2D0081DBE962AE1F81F211.png" width="822.00" height="51.00" transform="matrix(1.00, 0.00, -0.00, -1.00, 202.0, 353.0)"></image><text xml:space="preserve" font-family="HelveticaNeue-Medium" font-size="46.0" fill="#EAEAEA" transform="matrix(1.00, 0.00, -0.00, -1.00, 203.0, 317.0)">‘</text><text xml:space="preserve" font-family="HelveticaNeue-Medium" font-size="46.0" fill="#EAEAEA" transform="matrix(1.00, 0.00, -0.00, -1.00, 215.8, 317.0)">d</text><text xml:space="preserve" font-family="HelveticaNeue-Medium" font-size="46.0" fill="#EAEAEA" transform="matrix(1.00, 0.00, -0.00, -1.00, 243.9, 317.0)">r</text><text xml:space="preserve" font-family="HelveticaNeue-Medium" font-size="46.0" fill="#EAEAEA" transform="matrix(1.00, 0.00, -0.00, -1.00, 260.1, 317.0)">a</text><text xml:space="preserve" font-family="HelveticaNeue-Medium" font-size="46.0" fill="#EAEAEA" transform="matrix(1.00, 0.00, -0.00, -1.00, 285.7, 317.0)">i</text><text xml:space="preserve" font-family="HelveticaNeue-Medium" font-size="46.0" fill="#EAEAEA" transform="matrix(1.00, 0.00, -0.00, -1.00, 296.7, 317.0)">n</text><text xml:space="preserve" font-family="HelveticaNeue-Medium" font-size="46.0" fill="#EAEAEA" transform="matrix(1.00, 0.00, -0.00, -1.00, 323.2, 317.0)">’</text><text xml:space="preserve" font-family="HelveticaNeue-Medium" font-size="46.0" fill="#EAEAEA" transform="matrix(1.00, 0.00, -0.00, -1.00, 335.9, 317.0)">,</text><text xml:space="preserve" font-family="HelveticaNeue-Medium" font-size="46.0" fill="#EAEAEA" transform="matrix(1.00, 0.00, -0.00, -1.00, 348.7, 317.0)"> </text><text xml:space="preserve" font-family="HelveticaNeue-Medium" font-size="46.0" fill="#EAEAEA" transform="matrix(1.00, 0.00, -0.00, -1.00, 361.5, 317.0)">‘</text><text xml:space="preserve" font-family="HelveticaNeue-Medium" font-size="46.0" fill="#EAEAEA" transform="matrix(1.00, 0.00, -0.00, -1.00, 374.3, 317.0)">p</text><text xml:space="preserve" font-family="HelveticaNeue-Medium" font-size="46.0" fill="#EAEAEA" transform="matrix(1.00, 0.00, -0.00, -1.00, 402.4, 317.0)">i</text><text xml:space="preserve" font-family="HelveticaNeue-Medium" font-size="46.0" fill="#EAEAEA" transform="matrix(1.00, 0.00, -0.00, -1.00, 413.5, 317.0)">p</text><text xml:space="preserve" font-family="HelveticaNeue-Medium" font-size="46.0" fill="#EAEAEA" transform="matrix(1.00, 0.00, -0.00, -1.00, 441.6, 317.0)">e</text><text xml:space="preserve" font-family="HelveticaNeue-Medium" font-size="46.0" fill="#EAEAEA" transform="matrix(1.00, 0.00, -0.00, -1.00, 467.2, 317.0)">’</text><text xml:space="preserve" font-family="HelveticaNeue-Medium" font-size="46.0" fill="#EAEAEA" transform="matrix(1.00, 0.00, -0.00, -1.00, 480.0, 317.0)">,</text><text xml:space="preserve" font-family="HelveticaNeue-Medium" font-size="46.0" fill="#EAEAEA" transform="matrix(1.00, 0.00, -0.00, -1.00, 492.8, 317.0)"> </text><text xml:space="preserve" font-family="HelveticaNeue-Medium" font-size="46.0" fill="#EAEAEA" transform="matrix(1.00, 0.00, -0.00, -1.00, 505.5, 317.0)">‘</text><text xml:space="preserve" font-family="HelveticaNeue-Medium" font-size="46.0" fill="#EAEAEA" transform="matrix(1.00, 0.00, -0.00, -1.00, 518.3, 317.0)">e</text><text xml:space="preserve" font-family="HelveticaNeue-Medium" font-size="46.0" fill="#EAEAEA" transform="matrix(1.00, 0.00, -0.00, -1.00, 543.9, 317.0)">r</text><text xml:space="preserve" font-family="HelveticaNeue-Medium" font-size="46.0" fill="#EAEAEA" transform="matrix(1.00, 0.00, -0.00, -1.00, 560.1, 317.0)">r</text><text xml:space="preserve" font-family="HelveticaNeue-Medium" font-size="46.0" fill="#EAEAEA" transform="matrix(1.00, 0.00, -0.00, -1.00, 575.5, 317.0)">o</text><text xml:space="preserve" font-family="HelveticaNeue-Medium" font-size="46.0" fill="#EAEAEA" transform="matrix(1.00, 0.00, -0.00, -1.00, 602.7, 317.0)">r</text><text xml:space="preserve" font-family="HelveticaNeue-Medium" font-size="46.0" fill="#EAEAEA" transform="matrix(1.00, 0.00, -0.00, -1.00, 618.9, 317.0)">’</text><text xml:space="preserve" font-family="HelveticaNeue-Medium" font-size="46.0" fill="#EAEAEA" transform="matrix(1.00, 0.00, -0.00, -1.00, 631.7, 317.0)">,</text><text xml:space="preserve" font-family="HelveticaNeue-Medium" font-size="46.0" fill="#EAEAEA" transform="matrix(1.00, 0.00, -0.00, -1.00, 644.5, 317.0)"> </text><text xml:space="preserve" font-family="HelveticaNeue-Medium" font-size="46.0" fill="#EAEAEA" transform="matrix(1.00, 0.00, -0.00, -1.00, 657.3, 317.0)">w</text><text xml:space="preserve" font-family="HelveticaNeue-Medium" font-size="46.0" fill="#EAEAEA" transform="matrix(1.00, 0.00, -0.00, -1.00, 693.1, 317.0)">r</text><text xml:space="preserve" font-family="HelveticaNeue-Medium" font-size="46.0" fill="#EAEAEA" transform="matrix(1.00, 0.00, -0.00, -1.00, 709.3, 317.0)">i</text><text xml:space="preserve" font-family="HelveticaNeue-Medium" font-size="46.0" fill="#EAEAEA" transform="matrix(1.00, 0.00, -0.00, -1.00, 720.4, 317.0)">t</text><text xml:space="preserve" font-family="HelveticaNeue-Medium" font-size="46.0" fill="#EAEAEA" transform="matrix(1.00, 0.00, -0.00, -1.00, 735.7, 317.0)">e</text><text xml:space="preserve" font-family="HelveticaNeue-Medium" font-size="46.0" fill="#EAEAEA" transform="matrix(1.00, 0.00, -0.00, -1.00, 761.3, 317.0)">(</text><text xml:space="preserve" font-family="HelveticaNeue-Medium" font-size="46.0" fill="#EAEAEA" transform="matrix(1.00, 0.00, -0.00, -1.00, 774.0, 317.0)">)</text><text xml:space="preserve" font-family="HelveticaNeue-Medium" font-size="46.0" fill="#EAEAEA" transform="matrix(1.00, 0.00, -0.00, -1.00, 786.8, 317.0)">,</text><text xml:space="preserve" font-family="HelveticaNeue-Medium" font-size="46.0" fill="#EAEAEA" transform="matrix(1.00, 0.00, -0.00, -1.00, 799.6, 317.0)"> </text><text xml:space="preserve" font-family="HelveticaNeue-Medium" font-size="46.0" fill="#EAEAEA" transform="matrix(1.00, 0.00, -0.00, -1.00, 812.4, 317.0)">e</text><text xml:space="preserve" font-family="HelveticaNeue-Medium" font-size="46.0" fill="#EAEAEA" transform="matrix(1.00, 0.00, -0.00, -1.00, 838.0, 317.0)">n</text><text xml:space="preserve" font-family="HelveticaNeue-Medium" font-size="46.0" fill="#EAEAEA" transform="matrix(1.00, 0.00, -0.00, -1.00, 864.4, 317.0)">d</text><text xml:space="preserve" font-family="HelveticaNeue-Medium" font-size="46.0" fill="#EAEAEA" transform="matrix(1.00, 0.00, -0.00, -1.00, 892.5, 317.0)">(</text><text xml:space="preserve" font-family="HelveticaNeue-Medium" font-size="46.0" fill="#EAEAEA" transform="matrix(1.00, 0.00, -0.00, -1.00, 905.3, 317.0)">)</text><text xml:space="preserve" font-family="HelveticaNeue-Medium" font-size="46.0" fill="#EAEAEA" transform="matrix(1.00, 0.00, -0.00, -1.00, 918.1, 317.0)">,</text><text xml:space="preserve" font-family="HelveticaNeue-Medium" font-size="46.0" fill="#EAEAEA" transform="matrix(1.00, 0.00, -0.00, -1.00, 930.9, 317.0)"> </text><text xml:space="preserve" font-family="HelveticaNeue-Medium" font-size="46.0" fill="#EAEAEA" transform="matrix(1.00, 0.00, -0.00, -1.00, 943.6, 317.0)">e</text><text xml:space="preserve" font-family="HelveticaNeue-Medium" font-size="46.0" fill="#EAEAEA" transform="matrix(1.00, 0.00, -0.00, -1.00, 969.2, 317.0)">t</text><text xml:space="preserve" font-family="HelveticaNeue-Medium" font-size="46.0" fill="#EAEAEA" transform="matrix(1.00, 0.00, -0.00, -1.00, 984.5, 317.0)">c</text><text xml:space="preserve" font-family="HelveticaNeue-Medium" font-size="46.0" fill="#EAEAEA" transform="matrix(1.00, 0.00, -0.00, -1.00, 1010.1, 317.0)">.</text></g></svg>