<?xml version="1.0" encoding="UTF-8" standalone="no"?><svg xmlns="http://www.w3.org/2000/svg" xmlns:xlink="http://www.w3.org/1999/xlink" clip-rule="evenodd" stroke-miterlimit="4.00" viewBox="0 0 972 60"><desc>SVG generated by Keynote</desc><defs></defs><g transform="matrix(1.00, 0.00, -0.00, -1.00, 0.0, 60.0)"><image xlink:href="../../EED742DE-3384-4455-8BF3-829328D028E0/assets/D4A260C128CF02DC021728C5FD2F55DF.png" width="955.00" height="57.00" transform="matrix(1.00, 0.00, -0.00, -1.00, 16.0, 59.0)"></image><text xml:space="preserve" font-family="HelveticaNeue-Medium" font-size="52.0" fill="#EAEAEA" transform="matrix(1.00, 0.00, -0.00, -1.00, 6.0, 18.0)"> </text><text xml:space="preserve" font-family="HelveticaNeue-Medium" font-size="52.0" fill="#EAEAEA" transform="matrix(1.00, 0.00, -0.00, -1.00, 20.5, 18.0)">t</text><text xml:space="preserve" font-family="HelveticaNeue-Medium" font-size="52.0" fill="#EAEAEA" transform="matrix(1.00, 0.00, -0.00, -1.00, 37.8, 18.0)">o</text><text xml:space="preserve" font-family="HelveticaNeue-Medium" font-size="52.0" fill="#EAEAEA" transform="matrix(1.00, 0.00, -0.00, -1.00, 68.6, 18.0)"> </text><text xml:space="preserve" font-family="HelveticaNeue-Medium" font-size="52.0" fill="#EAEAEA" transform="matrix(1.00, 0.00, -0.00, -1.00, 83.1, 18.0)">a</text><text xml:space="preserve" font-family="HelveticaNeue-Medium" font-size="52.0" fill="#EAEAEA" transform="matrix(1.00, 0.00, -0.00, -1.00, 112.0, 18.0)">c</text><text xml:space="preserve" font-family="HelveticaNeue-Medium" font-size="52.0" fill="#EAEAEA" transform="matrix(1.00, 0.00, -0.00, -1.00, 140.9, 18.0)">c</text><text xml:space="preserve" font-family="HelveticaNeue-Medium" font-size="52.0" fill="#EAEAEA" transform="matrix(1.00, 0.00, -0.00, -1.00, 169.8, 18.0)">e</text><text xml:space="preserve" font-family="HelveticaNeue-Medium" font-size="52.0" fill="#EAEAEA" transform="matrix(1.00, 0.00, -0.00, -1.00, 198.7, 18.0)">s</text><text xml:space="preserve" font-family="HelveticaNeue-Medium" font-size="52.0" fill="#EAEAEA" transform="matrix(1.00, 0.00, -0.00, -1.00, 225.7, 18.0)">s</text><text xml:space="preserve" font-family="HelveticaNeue-Medium" font-size="52.0" fill="#EAEAEA" transform="matrix(1.00, 0.00, -0.00, -1.00, 252.7, 18.0)"> </text><text xml:space="preserve" font-family="HelveticaNeue-Medium" font-size="52.0" fill="#EAEAEA" transform="matrix(1.00, 0.00, -0.00, -1.00, 267.1, 18.0)">s</text><text xml:space="preserve" font-family="HelveticaNeue-Medium" font-size="52.0" fill="#EAEAEA" transform="matrix(1.00, 0.00, -0.00, -1.00, 294.1, 18.0)">t</text><text xml:space="preserve" font-family="HelveticaNeue-Medium" font-size="52.0" fill="#EAEAEA" transform="matrix(1.00, 0.00, -0.00, -1.00, 311.4, 18.0)">r</text><text xml:space="preserve" font-family="HelveticaNeue-Medium" font-size="52.0" fill="#EAEAEA" transform="matrix(1.00, 0.00, -0.00, -1.00, 328.8, 18.0)">e</text><text xml:space="preserve" font-family="HelveticaNeue-Medium" font-size="52.0" fill="#EAEAEA" transform="matrix(1.00, 0.00, -0.00, -1.00, 357.7, 18.0)">a</text><text xml:space="preserve" font-family="HelveticaNeue-Medium" font-size="52.0" fill="#EAEAEA" transform="matrix(1.00, 0.00, -0.00, -1.00, 386.6, 18.0)">m</text><text xml:space="preserve" font-family="HelveticaNeue-Medium" font-size="52.0" fill="#EAEAEA" transform="matrix(1.00, 0.00, -0.00, -1.00, 431.9, 18.0)"> </text><text xml:space="preserve" font-family="HelveticaNeue-Medium" font-size="52.0" fill="#EAEAEA" transform="matrix(1.00, 0.00, -0.00, -1.00, 446.3, 18.0)">A</text><text xml:space="preserve" font-family="HelveticaNeue-Medium" font-size="52.0" fill="#EAEAEA" transform="matrix(1.00, 0.00, -0.00, -1.00, 481.0, 18.0)">P</text><text xml:space="preserve" font-family="HelveticaNeue-Medium" font-size="52.0" fill="#EAEAEA" transform="matrix(1.00, 0.00, -0.00, -1.00, 515.7, 18.0)">I</text><text xml:space="preserve" font-family="HelveticaNeue-Medium" font-size="52.0" fill="#EAEAEA" transform="matrix(1.00, 0.00, -0.00, -1.00, 530.2, 18.0)"> </text><text xml:space="preserve" font-family="HelveticaNeue-Medium" font-size="52.0" fill="#EAEAEA" transform="matrix(1.00, 0.00, -0.00, -1.00, 544.6, 18.0)">-</text><text xml:space="preserve" font-family="HelveticaNeue-Medium" font-size="52.0" fill="#EAEAEA" transform="matrix(1.00, 0.00, -0.00, -1.00, 564.8, 18.0)"> </text><text xml:space="preserve" font-family="HelveticaNeue-Medium" font-size="52.0" fill="#EAEAEA" transform="matrix(1.00, 0.00, -0.00, -1.00, 579.3, 18.0)">r</text><text xml:space="preserve" font-family="HelveticaNeue-Medium" font-size="52.0" fill="#EAEAEA" transform="matrix(1.00, 0.00, -0.00, -1.00, 596.7, 18.0)">e</text><text xml:space="preserve" font-family="HelveticaNeue-Medium" font-size="52.0" fill="#EAEAEA" transform="matrix(1.00, 0.00, -0.00, -1.00, 625.6, 18.0)">q</text><text xml:space="preserve" font-family="HelveticaNeue-Medium" font-size="52.0" fill="#EAEAEA" transform="matrix(1.00, 0.00, -0.00, -1.00, 657.4, 18.0)">u</text><text xml:space="preserve" font-family="HelveticaNeue-Medium" font-size="52.0" fill="#EAEAEA" transform="matrix(1.00, 0.00, -0.00, -1.00, 687.2, 18.0)">i</text><text xml:space="preserve" font-family="HelveticaNeue-Medium" font-size="52.0" fill="#EAEAEA" transform="matrix(1.00, 0.00, -0.00, -1.00, 699.7, 18.0)">r</text><text xml:space="preserve" font-family="HelveticaNeue-Medium" font-size="52.0" fill="#EAEAEA" transform="matrix(1.00, 0.00, -0.00, -1.00, 717.1, 18.0)">e</text><text xml:space="preserve" font-family="HelveticaNeue-Medium" font-size="52.0" fill="#EAEAEA" transform="matrix(1.00, 0.00, -0.00, -1.00, 746.0, 18.0)">(</text><text xml:space="preserve" font-family="HelveticaNeue-Medium" font-size="52.0" fill="#EAEAEA" transform="matrix(1.00, 0.00, -0.00, -1.00, 760.5, 18.0)">‘</text><text xml:space="preserve" font-family="HelveticaNeue-Medium" font-size="52.0" fill="#EAEAEA" transform="matrix(1.00, 0.00, -0.00, -1.00, 774.9, 18.0)">s</text><text xml:space="preserve" font-family="HelveticaNeue-Medium" font-size="52.0" fill="#EAEAEA" transform="matrix(1.00, 0.00, -0.00, -1.00, 801.9, 18.0)">t</text><text xml:space="preserve" font-family="HelveticaNeue-Medium" font-size="52.0" fill="#EAEAEA" transform="matrix(1.00, 0.00, -0.00, -1.00, 819.2, 18.0)">r</text><text xml:space="preserve" font-family="HelveticaNeue-Medium" font-size="52.0" fill="#EAEAEA" transform="matrix(1.00, 0.00, -0.00, -1.00, 836.6, 18.0)">e</text><text xml:space="preserve" font-family="HelveticaNeue-Medium" font-size="52.0" fill="#EAEAEA" transform="matrix(1.00, 0.00, -0.00, -1.00, 865.5, 18.0)">a</text><text xml:space="preserve" font-family="HelveticaNeue-Medium" font-size="52.0" fill="#EAEAEA" transform="matrix(1.00, 0.00, -0.00, -1.00, 894.4, 18.0)">m</text><text xml:space="preserve" font-family="HelveticaNeue-Medium" font-size="52.0" fill="#EAEAEA" transform="matrix(1.00, 0.00, -0.00, -1.00, 939.7, 18.0)">’</text><text xml:space="preserve" font-family="HelveticaNeue-Medium" font-size="52.0" fill="#EAEAEA" transform="matrix(1.00, 0.00, -0.00, -1.00, 954.1, 18.0)">)</text></g></svg>