<?xml version="1.0" encoding="UTF-8" standalone="no"?><svg xmlns="http://www.w3.org/2000/svg" xmlns:xlink="http://www.w3.org/1999/xlink" clip-rule="evenodd" stroke-miterlimit="4.00" viewBox="0 0 91 123"><desc>SVG generated by Keynote</desc><defs></defs><g transform="matrix(1.00, 0.00, -0.00, -1.00, 0.0, 123.0)"><image xlink:href="0B8CF2DE214FFC5875EC97159E31269A.png" width="87.00" height="116.00" transform="matrix(1.00, 0.00, -0.00, -1.00, 1.9, 117.7)" opacity="0.50"></image><g><clipPath id="clip-153"><path d="M 5.9 115.7 L 85.1 115.7 L 85.1 7.8 L 5.9 7.8 Z M 5.9 115.7 "></path></clipPath><g clip-path="url(#clip-153)"><image xlink:href="../../EED742DE-3384-4455-8BF3-829328D028E0/assets/057B8BF53FF5FC4867FB3F32B95B3DC1.jpeg" width="394.00" height="394.00" transform="matrix(0.65, 0.00, -0.00, -0.65, 5.9, 115.7)"></image><path d="M 5.9 115.7 L 85.1 115.7 L 85.1 7.8 L 5.9 7.8 Z M 5.9 115.7 " fill="#14A3FF" fill-opacity="0.60"></path></g></g><image xlink:href="1B9FA9288EB3923161BC1B0E2CEEFAC7.png" width="28.00" height="46.00" transform="matrix(1.00, 0.00, -0.00, -1.00, 33.0, 79.0)"></image><g><clipPath id="clip-154"><path d="M -5.6 7.8 L 96.6 7.8 L 96.6 115.7 L -5.6 115.7 Z M -5.6 7.8 "></path></clipPath><g clip-path="url(#clip-154)"><text xml:space="preserve" font-family="HelveticaNeue-Medium" font-size="42.0" fill="#FEFFFE" transform="matrix(1.00, 0.00, -0.00, -1.00, 34.0, 46.0)">:</text><text xml:space="preserve" font-family="HelveticaNeue-Medium" font-size="42.0" fill="#FEFFFE" transform="matrix(1.00, 0.00, -0.00, -1.00, 45.7, 46.0)">(</text></g></g></g></svg>