<?xml version="1.0" encoding="UTF-8" standalone="no"?><svg xmlns="http://www.w3.org/2000/svg" xmlns:xlink="http://www.w3.org/1999/xlink" clip-rule="evenodd" stroke-miterlimit="4.00" viewBox="0 0 155 37"><desc>SVG generated by Keynote</desc><defs></defs><g transform="matrix(1.00, 0.00, -0.00, -1.00, 0.0, 37.0)"><image xlink:href="../../29C40E5D-2FC7-4C45-B08E-D2B8B96D9A8F/assets/5025D4AA0D19D923E240E9BD819BC234.png" width="151.00" height="34.00" transform="matrix(1.00, 0.00, -0.00, -1.00, 2.0, 36.0)"></image><text xml:space="preserve" font-family="HelveticaNeue-Medium" font-size="34.0" fill="#EAEAEA" transform="matrix(1.00, 0.00, -0.00, -1.00, 6.0, 9.0)">w</text><text xml:space="preserve" font-family="HelveticaNeue-Medium" font-size="34.0" fill="#EAEAEA" transform="matrix(1.00, 0.00, -0.00, -1.00, 32.5, 9.0)">r</text><text xml:space="preserve" font-family="HelveticaNeue-Medium" font-size="34.0" fill="#EAEAEA" transform="matrix(1.00, 0.00, -0.00, -1.00, 44.4, 9.0)">i</text><text xml:space="preserve" font-family="HelveticaNeue-Medium" font-size="34.0" fill="#EAEAEA" transform="matrix(1.00, 0.00, -0.00, -1.00, 52.6, 9.0)">t</text><text xml:space="preserve" font-family="HelveticaNeue-Medium" font-size="34.0" fill="#EAEAEA" transform="matrix(1.00, 0.00, -0.00, -1.00, 63.9, 9.0)">e</text><text xml:space="preserve" font-family="HelveticaNeue-Medium" font-size="34.0" fill="#EAEAEA" transform="matrix(1.00, 0.00, -0.00, -1.00, 82.8, 9.0)">a</text><text xml:space="preserve" font-family="HelveticaNeue-Medium" font-size="34.0" fill="#EAEAEA" transform="matrix(1.00, 0.00, -0.00, -1.00, 101.7, 9.0)">b</text><text xml:space="preserve" font-family="HelveticaNeue-Medium" font-size="34.0" fill="#EAEAEA" transform="matrix(1.00, 0.00, -0.00, -1.00, 122.5, 9.0)">l</text><text xml:space="preserve" font-family="HelveticaNeue-Medium" font-size="34.0" fill="#EAEAEA" transform="matrix(1.00, 0.00, -0.00, -1.00, 130.7, 9.0)">e</text></g></svg>