<?xml version="1.0" encoding="UTF-8" standalone="no"?><svg xmlns="http://www.w3.org/2000/svg" xmlns:xlink="http://www.w3.org/1999/xlink" clip-rule="evenodd" stroke-miterlimit="4.00" viewBox="0 0 235 213"><desc>SVG generated by Keynote</desc><defs><linearGradient id="gradSh1.0" x1="0.0" y1="0.0" x2="100.0" y2="0.0" gradientUnits="userSpaceOnUse" gradientTransform="matrix(0.00, -2.00, -2.26, 0.00, 117.5, 206.9)"><stop offset="0.00000" stop-color="#EDAC0F"></stop><stop offset="0.01026" stop-color="#EDAC10"></stop><stop offset="0.01173" stop-color="#ECAB10"></stop><stop offset="0.81085" stop-color="#D47D20"></stop><stop offset="0.81158" stop-color="#D47C20"></stop><stop offset="1.00000" stop-color="#CE7123"></stop></linearGradient></defs><g transform="matrix(1.00, 0.00, -0.00, -1.00, 0.0, 213.0)"><image xlink:href="8389A8F9D444FB4F0AABA7139B7637F3.png" width="232.00" height="206.00" transform="matrix(1.00, 0.00, -0.00, -1.00, 1.5, 207.9)" opacity="0.50"></image><g><clipPath id="clip-171"><path d="M 5.5 205.9 L 229.5 205.9 L 229.5 7.6 L 5.5 7.6 Z M 5.5 205.9 "></path></clipPath><g clip-path="url(#clip-171)"><path d="M 5.5 205.9 L 229.5 205.9 L 229.5 7.6 L 5.5 7.6 Z M 5.5 205.9 " fill="url(#gradSh1.0)"></path></g></g><image xlink:href="54F5A4D7647390110AD8A49245BC2BF3.png" width="187.00" height="33.00" transform="matrix(1.00, 0.00, -0.00, -1.00, 23.0, 121.0)"></image><g><clipPath id="clip-172"><path d="M -4.0 7.6 L 239.0 7.6 L 239.0 205.9 L -4.0 205.9 Z M -4.0 7.6 "></path></clipPath><g clip-path="url(#clip-172)"><text xml:space="preserve" font-family="HelveticaNeue-Medium" font-size="42.0" fill="#3B3B3B" transform="matrix(1.00, 0.00, -0.00, -1.00, 24.0, 91.0)">t</text><text xml:space="preserve" font-family="HelveticaNeue-Medium" font-size="42.0" fill="#3B3B3B" transform="matrix(1.00, 0.00, -0.00, -1.00, 38.0, 91.0)">r</text><text xml:space="preserve" font-family="HelveticaNeue-Medium" font-size="42.0" fill="#3B3B3B" transform="matrix(1.00, 0.00, -0.00, -1.00, 52.8, 91.0)">a</text><text xml:space="preserve" font-family="HelveticaNeue-Medium" font-size="42.0" fill="#3B3B3B" transform="matrix(1.00, 0.00, -0.00, -1.00, 76.1, 91.0)">n</text><text xml:space="preserve" font-family="HelveticaNeue-Medium" font-size="42.0" fill="#3B3B3B" transform="matrix(1.00, 0.00, -0.00, -1.00, 100.2, 91.0)">s</text><text xml:space="preserve" font-family="HelveticaNeue-Medium" font-size="42.0" fill="#3B3B3B" transform="matrix(1.00, 0.00, -0.00, -1.00, 122.0, 91.0)">f</text><text xml:space="preserve" font-family="HelveticaNeue-Medium" font-size="42.0" fill="#3B3B3B" transform="matrix(1.00, 0.00, -0.00, -1.00, 135.3, 91.0)">o</text><text xml:space="preserve" font-family="HelveticaNeue-Medium" font-size="42.0" fill="#3B3B3B" transform="matrix(1.00, 0.00, -0.00, -1.00, 160.2, 91.0)">r</text><text xml:space="preserve" font-family="HelveticaNeue-Medium" font-size="42.0" fill="#3B3B3B" transform="matrix(1.00, 0.00, -0.00, -1.00, 174.9, 91.0)">m</text></g></g></g></svg>