<?xml version="1.0" encoding="UTF-8" standalone="no"?><svg xmlns="http://www.w3.org/2000/svg" xmlns:xlink="http://www.w3.org/1999/xlink" clip-rule="evenodd" stroke-miterlimit="4.00" viewBox="0 0 264 50"><desc>SVG generated by Keynote</desc><defs></defs><g transform="matrix(1.00, 0.00, -0.00, -1.00, 0.0, 50.0)"><image xlink:href="../../930B4517-C13D-44D6-A136-AAA8F23FE70D/assets/0144C41A95C34B504258812D0112DA6A.png" width="21.00" height="22.00" transform="matrix(1.00, 0.00, -0.00, -1.00, 2.0, 35.0)"></image><text xml:space="preserve" font-family="HelveticaNeue-Medium" font-size="34.5" fill="#EAEAEA" transform="matrix(1.00, 0.00, -0.00, -1.00, 4.0, 13.8)">•</text><image xlink:href="43B3CDC45065D13E53A5DF701F7837B7.png" width="219.00" height="42.00" transform="matrix(1.00, 0.00, -0.00, -1.00, 43.0, 44.0)"></image><text xml:space="preserve" font-family="HelveticaNeue-Medium" font-size="46.0" fill="#EAEAEA" transform="matrix(1.00, 0.00, -0.00, -1.00, 47.0, 9.0)">T</text><text xml:space="preserve" font-family="HelveticaNeue-Medium" font-size="46.0" fill="#EAEAEA" transform="matrix(1.00, 0.00, -0.00, -1.00, 70.0, 9.0)">r</text><text xml:space="preserve" font-family="HelveticaNeue-Medium" font-size="46.0" fill="#EAEAEA" transform="matrix(1.00, 0.00, -0.00, -1.00, 86.2, 9.0)">a</text><text xml:space="preserve" font-family="HelveticaNeue-Medium" font-size="46.0" fill="#EAEAEA" transform="matrix(1.00, 0.00, -0.00, -1.00, 111.8, 9.0)">n</text><text xml:space="preserve" font-family="HelveticaNeue-Medium" font-size="46.0" fill="#EAEAEA" transform="matrix(1.00, 0.00, -0.00, -1.00, 138.2, 9.0)">s</text><text xml:space="preserve" font-family="HelveticaNeue-Medium" font-size="46.0" fill="#EAEAEA" transform="matrix(1.00, 0.00, -0.00, -1.00, 162.1, 9.0)">f</text><text xml:space="preserve" font-family="HelveticaNeue-Medium" font-size="46.0" fill="#EAEAEA" transform="matrix(1.00, 0.00, -0.00, -1.00, 176.6, 9.0)">o</text><text xml:space="preserve" font-family="HelveticaNeue-Medium" font-size="46.0" fill="#EAEAEA" transform="matrix(1.00, 0.00, -0.00, -1.00, 203.9, 9.0)">r</text><text xml:space="preserve" font-family="HelveticaNeue-Medium" font-size="46.0" fill="#EAEAEA" transform="matrix(1.00, 0.00, -0.00, -1.00, 220.1, 9.0)">m</text></g></svg>