<?xml version="1.0" encoding="UTF-8" standalone="no"?><svg xmlns="http://www.w3.org/2000/svg" xmlns:xlink="http://www.w3.org/1999/xlink" clip-rule="evenodd" stroke-miterlimit="4.00" viewBox="0 0 254 50"><desc>SVG generated by Keynote</desc><defs></defs><g transform="matrix(1.00, 0.00, -0.00, -1.00, 0.0, 50.0)"><image xlink:href="../../930B4517-C13D-44D6-A136-AAA8F23FE70D/assets/0144C41A95C34B504258812D0112DA6A.png" width="21.00" height="22.00" transform="matrix(1.00, 0.00, -0.00, -1.00, 2.0, 35.0)"></image><text xml:space="preserve" font-family="HelveticaNeue-Medium" font-size="34.5" fill="#EAEAEA" transform="matrix(1.00, 0.00, -0.00, -1.00, 4.0, 13.8)">•</text><image xlink:href="F328D26A7ABF957EF37DB95CCF0473FC.png" width="208.00" height="42.00" transform="matrix(1.00, 0.00, -0.00, -1.00, 43.0, 44.0)"></image><text xml:space="preserve" font-family="HelveticaNeue-Medium" font-size="46.0" fill="#EAEAEA" transform="matrix(1.00, 0.00, -0.00, -1.00, 47.0, 9.0)">W</text><text xml:space="preserve" font-family="HelveticaNeue-Medium" font-size="46.0" fill="#EAEAEA" transform="matrix(1.00, 0.00, -0.00, -1.00, 89.6, 9.0)">r</text><text xml:space="preserve" font-family="HelveticaNeue-Medium" font-size="46.0" fill="#EAEAEA" transform="matrix(1.00, 0.00, -0.00, -1.00, 105.8, 9.0)">i</text><text xml:space="preserve" font-family="HelveticaNeue-Medium" font-size="46.0" fill="#EAEAEA" transform="matrix(1.00, 0.00, -0.00, -1.00, 116.9, 9.0)">t</text><text xml:space="preserve" font-family="HelveticaNeue-Medium" font-size="46.0" fill="#EAEAEA" transform="matrix(1.00, 0.00, -0.00, -1.00, 132.2, 9.0)">e</text><text xml:space="preserve" font-family="HelveticaNeue-Medium" font-size="46.0" fill="#EAEAEA" transform="matrix(1.00, 0.00, -0.00, -1.00, 157.8, 9.0)">a</text><text xml:space="preserve" font-family="HelveticaNeue-Medium" font-size="46.0" fill="#EAEAEA" transform="matrix(1.00, 0.00, -0.00, -1.00, 183.3, 9.0)">b</text><text xml:space="preserve" font-family="HelveticaNeue-Medium" font-size="46.0" fill="#EAEAEA" transform="matrix(1.00, 0.00, -0.00, -1.00, 211.4, 9.0)">l</text><text xml:space="preserve" font-family="HelveticaNeue-Medium" font-size="46.0" fill="#EAEAEA" transform="matrix(1.00, 0.00, -0.00, -1.00, 222.5, 9.0)">e</text></g></svg>