<?xml version="1.0" encoding="UTF-8" standalone="no"?><svg xmlns="http://www.w3.org/2000/svg" xmlns:xlink="http://www.w3.org/1999/xlink" clip-rule="evenodd" stroke-miterlimit="4.00" viewBox="0 0 615 113"><desc>SVG generated by Keynote</desc><defs></defs><g transform="matrix(1.00, 0.00, -0.00, -1.00, 0.0, 113.0)"><image xlink:href="2CF37A80FB62BEC0D2918339AD364237.png" width="21.00" height="22.00" transform="matrix(1.00, 0.00, -0.00, -1.00, 3.0, 98.0)"></image><text xml:space="preserve" font-family="HelveticaNeue-Medium" font-size="34.5" fill="#EAEAEA" transform="matrix(1.00, 0.00, -0.00, -1.00, 4.6, 76.7)">•</text><image xlink:href="662B05B77D8BEE23C31E683B833ED4E5.png" width="566.00" height="51.00" transform="matrix(1.00, 0.00, -0.00, -1.00, 45.0, 108.0)"></image><text xml:space="preserve" font-family="HelveticaNeue-Medium" font-size="46.0" fill="#EAEAEA" transform="matrix(1.00, 0.00, -0.00, -1.00, 48.0, 72.0)">e</text><text xml:space="preserve" font-family="HelveticaNeue-Medium" font-size="46.0" fill="#EAEAEA" transform="matrix(1.00, 0.00, -0.00, -1.00, 73.6, 72.0)">x</text><text xml:space="preserve" font-family="HelveticaNeue-Medium" font-size="46.0" fill="#EAEAEA" transform="matrix(1.00, 0.00, -0.00, -1.00, 98.3, 72.0)">:</text><text xml:space="preserve" font-family="HelveticaNeue-Medium" font-size="46.0" fill="#EAEAEA" transform="matrix(1.00, 0.00, -0.00, -1.00, 111.1, 72.0)"> </text><text xml:space="preserve" font-family="HelveticaNeue-Medium" font-size="46.0" fill="#EAEAEA" transform="matrix(1.00, 0.00, -0.00, -1.00, 123.9, 72.0)">f</text><text xml:space="preserve" font-family="HelveticaNeue-Medium" font-size="46.0" fill="#EAEAEA" transform="matrix(1.00, 0.00, -0.00, -1.00, 138.3, 72.0)">s</text><text xml:space="preserve" font-family="HelveticaNeue-Medium" font-size="46.0" fill="#EAEAEA" transform="matrix(1.00, 0.00, -0.00, -1.00, 162.2, 72.0)">.</text><text xml:space="preserve" font-family="HelveticaNeue-Medium" font-size="46.0" fill="#EAEAEA" transform="matrix(1.00, 0.00, -0.00, -1.00, 175.0, 72.0)">c</text><text xml:space="preserve" font-family="HelveticaNeue-Medium" font-size="46.0" fill="#EAEAEA" transform="matrix(1.00, 0.00, -0.00, -1.00, 200.6, 72.0)">r</text><text xml:space="preserve" font-family="HelveticaNeue-Medium" font-size="46.0" fill="#EAEAEA" transform="matrix(1.00, 0.00, -0.00, -1.00, 215.9, 72.0)">e</text><text xml:space="preserve" font-family="HelveticaNeue-Medium" font-size="46.0" fill="#EAEAEA" transform="matrix(1.00, 0.00, -0.00, -1.00, 241.5, 72.0)">a</text><text xml:space="preserve" font-family="HelveticaNeue-Medium" font-size="46.0" fill="#EAEAEA" transform="matrix(1.00, 0.00, -0.00, -1.00, 267.1, 72.0)">t</text><text xml:space="preserve" font-family="HelveticaNeue-Medium" font-size="46.0" fill="#EAEAEA" transform="matrix(1.00, 0.00, -0.00, -1.00, 282.4, 72.0)">e</text><text xml:space="preserve" font-family="HelveticaNeue-Medium" font-size="46.0" fill="#EAEAEA" transform="matrix(1.00, 0.00, -0.00, -1.00, 308.0, 72.0)">R</text><text xml:space="preserve" font-family="HelveticaNeue-Medium" font-size="46.0" fill="#EAEAEA" transform="matrix(1.00, 0.00, -0.00, -1.00, 340.4, 72.0)">e</text><text xml:space="preserve" font-family="HelveticaNeue-Medium" font-size="46.0" fill="#EAEAEA" transform="matrix(1.00, 0.00, -0.00, -1.00, 366.0, 72.0)">a</text><text xml:space="preserve" font-family="HelveticaNeue-Medium" font-size="46.0" fill="#EAEAEA" transform="matrix(1.00, 0.00, -0.00, -1.00, 391.5, 72.0)">d</text><text xml:space="preserve" font-family="HelveticaNeue-Medium" font-size="46.0" fill="#EAEAEA" transform="matrix(1.00, 0.00, -0.00, -1.00, 419.6, 72.0)">S</text><text xml:space="preserve" font-family="HelveticaNeue-Medium" font-size="46.0" fill="#EAEAEA" transform="matrix(1.00, 0.00, -0.00, -1.00, 449.4, 72.0)">t</text><text xml:space="preserve" font-family="HelveticaNeue-Medium" font-size="46.0" fill="#EAEAEA" transform="matrix(1.00, 0.00, -0.00, -1.00, 464.8, 72.0)">r</text><text xml:space="preserve" font-family="HelveticaNeue-Medium" font-size="46.0" fill="#EAEAEA" transform="matrix(1.00, 0.00, -0.00, -1.00, 480.1, 72.0)">e</text><text xml:space="preserve" font-family="HelveticaNeue-Medium" font-size="46.0" fill="#EAEAEA" transform="matrix(1.00, 0.00, -0.00, -1.00, 505.7, 72.0)">a</text><text xml:space="preserve" font-family="HelveticaNeue-Medium" font-size="46.0" fill="#EAEAEA" transform="matrix(1.00, 0.00, -0.00, -1.00, 531.3, 72.0)">m</text><text xml:space="preserve" font-family="HelveticaNeue-Medium" font-size="46.0" fill="#EAEAEA" transform="matrix(1.00, 0.00, -0.00, -1.00, 571.3, 72.0)">(</text><text xml:space="preserve" font-family="HelveticaNeue-Medium" font-size="46.0" fill="#EAEAEA" transform="matrix(1.00, 0.00, -0.00, -1.00, 584.1, 72.0)">)</text><text xml:space="preserve" font-family="HelveticaNeue-Medium" font-size="46.0" fill="#EAEAEA" transform="matrix(1.00, 0.00, -0.00, -1.00, 596.9, 72.0)">,</text><text xml:space="preserve" font-family="HelveticaNeue-Medium" font-size="46.0" fill="#EAEAEA" transform="matrix(1.00, 0.00, -0.00, -1.00, 609.7, 72.0)"> </text><image xlink:href="44A657CE3B96080A8ACF11D7B5FFC524.png" width="291.00" height="50.00" transform="matrix(1.00, 0.00, -0.00, -1.00, 46.0, 51.0)"></image><text xml:space="preserve" font-family="HelveticaNeue-Medium" font-size="46.0" fill="#EAEAEA" transform="matrix(1.00, 0.00, -0.00, -1.00, 48.0, 16.0)">p</text><text xml:space="preserve" font-family="HelveticaNeue-Medium" font-size="46.0" fill="#EAEAEA" transform="matrix(1.00, 0.00, -0.00, -1.00, 76.1, 16.0)">r</text><text xml:space="preserve" font-family="HelveticaNeue-Medium" font-size="46.0" fill="#EAEAEA" transform="matrix(1.00, 0.00, -0.00, -1.00, 91.5, 16.0)">o</text><text xml:space="preserve" font-family="HelveticaNeue-Medium" font-size="46.0" fill="#EAEAEA" transform="matrix(1.00, 0.00, -0.00, -1.00, 118.7, 16.0)">c</text><text xml:space="preserve" font-family="HelveticaNeue-Medium" font-size="46.0" fill="#EAEAEA" transform="matrix(1.00, 0.00, -0.00, -1.00, 144.3, 16.0)">e</text><text xml:space="preserve" font-family="HelveticaNeue-Medium" font-size="46.0" fill="#EAEAEA" transform="matrix(1.00, 0.00, -0.00, -1.00, 169.9, 16.0)">s</text><text xml:space="preserve" font-family="HelveticaNeue-Medium" font-size="46.0" fill="#EAEAEA" transform="matrix(1.00, 0.00, -0.00, -1.00, 193.8, 16.0)">s</text><text xml:space="preserve" font-family="HelveticaNeue-Medium" font-size="46.0" fill="#EAEAEA" transform="matrix(1.00, 0.00, -0.00, -1.00, 217.6, 16.0)">.</text><text xml:space="preserve" font-family="HelveticaNeue-Medium" font-size="46.0" fill="#EAEAEA" transform="matrix(1.00, 0.00, -0.00, -1.00, 230.4, 16.0)">s</text><text xml:space="preserve" font-family="HelveticaNeue-Medium" font-size="46.0" fill="#EAEAEA" transform="matrix(1.00, 0.00, -0.00, -1.00, 254.3, 16.0)">t</text><text xml:space="preserve" font-family="HelveticaNeue-Medium" font-size="46.0" fill="#EAEAEA" transform="matrix(1.00, 0.00, -0.00, -1.00, 269.6, 16.0)">d</text><text xml:space="preserve" font-family="HelveticaNeue-Medium" font-size="46.0" fill="#EAEAEA" transform="matrix(1.00, 0.00, -0.00, -1.00, 297.7, 16.0)">i</text><text xml:space="preserve" font-family="HelveticaNeue-Medium" font-size="46.0" fill="#EAEAEA" transform="matrix(1.00, 0.00, -0.00, -1.00, 308.8, 16.0)">n</text></g></svg>