<?xml version="1.0" encoding="UTF-8" standalone="no"?><svg xmlns="http://www.w3.org/2000/svg" xmlns:xlink="http://www.w3.org/1999/xlink" clip-rule="evenodd" stroke-miterlimit="4.00" viewBox="0 0 404 403"><desc>SVG generated by Keynote</desc><defs><pattern id="5485D58E-8DEC-49DB-B3F0-E905236E57E3" patternUnits="userSpaceOnUse" width="394" height="394" viewBox="0 0 394 394" patternTransform="matrix(0.649746, 0.000000, 0.000000, -0.649746, 5.929802, 399.766900)"><image xlink:href="057B8BF53FF5FC4867FB3F32B95B3DC1.jpeg" width="394.00" height="394.00"></image></pattern></defs><g transform="matrix(1.00, 0.00, -0.00, -1.00, 0.0, 403.0)"><g><clipPath id="clip-119"><path d="M 0.9 0.3 L 403.4 0.3 L 403.4 402.8 L 0.9 402.8 Z M 0.9 0.3 "></path></clipPath><g clip-path="url(#clip-119)"><image xlink:href="1F578E8028AB2D07D35CC79F49F25911.png" width="400.00" height="400.00" transform="matrix(1.00, 0.00, -0.00, -1.00, 1.9, 401.8)" opacity="0.50"></image></g></g><g><clipPath id="clip-120"><path d="M 5.9 399.8 L 398.4 399.8 L 398.4 7.3 L 5.9 7.3 Z M 5.9 399.8 "></path></clipPath><g clip-path="url(#clip-120)"><g><clipPath id="clip-121"><path d="M 0.9 0.3 L 403.4 0.3 L 403.4 402.8 L 0.9 402.8 Z M 0.9 0.3 "></path></clipPath><g clip-path="url(#clip-121)"><path d="M 5.9 7.3 L 398.4 7.3 L 398.4 399.8 L 5.9 399.8 Z M 5.9 7.3 " fill="url(#5485D58E-8DEC-49DB-B3F0-E905236E57E3)"></path><path d="M 5.9 399.8 L 398.4 399.8 L 398.4 7.3 L 5.9 7.3 Z M 5.9 399.8 " fill="#14A3FF" fill-opacity="0.60"></path></g></g></g></g><image xlink:href="8A10D9C81ADC60546EB43EF15785554B.png" width="237.00" height="57.00" transform="matrix(1.00, 0.00, -0.00, -1.00, 84.0, 224.0)"></image><g><clipPath id="clip-122"><path d="M 64.1 150.8 L 340.2 150.8 L 340.2 252.3 L 64.1 252.3 Z M 64.1 150.8 "></path></clipPath><g clip-path="url(#clip-122)"><text xml:space="preserve" font-family="HelveticaNeue-Medium" font-size="52.0" fill="#EAEAEA" transform="matrix(1.00, 0.00, -0.00, -1.00, 84.0, 184.0)">‘</text><text xml:space="preserve" font-family="HelveticaNeue-Medium" font-size="52.0" fill="#EAEAEA" transform="matrix(1.00, 0.00, -0.00, -1.00, 98.5, 184.0)">B</text><text xml:space="preserve" font-family="HelveticaNeue-Medium" font-size="52.0" fill="#EAEAEA" transform="matrix(1.00, 0.00, -0.00, -1.00, 135.1, 184.0)">i</text><text xml:space="preserve" font-family="HelveticaNeue-Medium" font-size="52.0" fill="#EAEAEA" transform="matrix(1.00, 0.00, -0.00, -1.00, 147.6, 184.0)">g</text><text xml:space="preserve" font-family="HelveticaNeue-Medium" font-size="52.0" fill="#EAEAEA" transform="matrix(1.00, 0.00, -0.00, -1.00, 178.4, 184.0)"> </text><text xml:space="preserve" font-family="HelveticaNeue-Medium" font-size="52.0" fill="#EAEAEA" transform="matrix(1.00, 0.00, -0.00, -1.00, 192.9, 184.0)">D</text><text xml:space="preserve" font-family="HelveticaNeue-Medium" font-size="52.0" fill="#EAEAEA" transform="matrix(1.00, 0.00, -0.00, -1.00, 230.4, 184.0)">a</text><text xml:space="preserve" font-family="HelveticaNeue-Medium" font-size="52.0" fill="#EAEAEA" transform="matrix(1.00, 0.00, -0.00, -1.00, 259.3, 184.0)">t</text><text xml:space="preserve" font-family="HelveticaNeue-Medium" font-size="52.0" fill="#EAEAEA" transform="matrix(1.00, 0.00, -0.00, -1.00, 276.7, 184.0)">a</text><text xml:space="preserve" font-family="HelveticaNeue-Medium" font-size="52.0" fill="#EAEAEA" transform="matrix(1.00, 0.00, -0.00, -1.00, 305.6, 184.0)">’</text></g></g></g></svg>