<?xml version="1.0" encoding="UTF-8" standalone="no"?><svg xmlns="http://www.w3.org/2000/svg" xmlns:xlink="http://www.w3.org/1999/xlink" clip-rule="evenodd" stroke-miterlimit="4.00" viewBox="0 0 1920 1080"><desc>SVG generated by Keynote</desc><defs></defs><g transform="matrix(1.00, 0.00, -0.00, -1.00, 0.0, 1080.0)"><g><clipPath id="clip-144"><path d="M 0.0 1080.0 L 1920.0 1080.0 L 1920.0 0.0 L 0.0 0.0 Z M 0.0 1080.0 "></path></clipPath><g clip-path="url(#clip-144)"><image xlink:href="../../530E9AF0-43D7-4833-AF5F-F344C0C97C42/assets/3DC080932D3238CC8EBF0C8253C8A9A6.jpeg" width="1365.00" height="728.00" transform="matrix(1.48, 0.00, -0.00, -1.48, -52.5, 1080.0)"></image></g></g><image xlink:href="404AFFA7D0B964DC96FF5E43EBDF8FD7.png" width="571.00" height="91.00" transform="matrix(1.00, 0.00, -0.00, -1.00, 675.0, 947.0)"></image><text xml:space="preserve" font-family="HelveticaNeue-Bold" font-weight="bold" font-size="90.0" fill="#FEFFFE" transform="matrix(1.00, 0.00, -0.00, -1.00, 677.0, 879.0)">S</text><text xml:space="preserve" font-family="HelveticaNeue-Bold" font-weight="bold" font-size="90.0" fill="#FEFFFE" transform="matrix(1.00, 0.00, -0.00, -1.00, 735.4, 879.0)">t</text><text xml:space="preserve" font-family="HelveticaNeue-Bold" font-weight="bold" font-size="90.0" fill="#FEFFFE" transform="matrix(1.00, 0.00, -0.00, -1.00, 767.1, 879.0)">r</text><text xml:space="preserve" font-family="HelveticaNeue-Bold" font-weight="bold" font-size="90.0" fill="#FEFFFE" transform="matrix(1.00, 0.00, -0.00, -1.00, 800.5, 879.0)">e</text><text xml:space="preserve" font-family="HelveticaNeue-Bold" font-weight="bold" font-size="90.0" fill="#FEFFFE" transform="matrix(1.00, 0.00, -0.00, -1.00, 852.1, 879.0)">a</text><text xml:space="preserve" font-family="HelveticaNeue-Bold" font-weight="bold" font-size="90.0" fill="#FEFFFE" transform="matrix(1.00, 0.00, -0.00, -1.00, 903.8, 879.0)">m</text><text xml:space="preserve" font-family="HelveticaNeue-Bold" font-weight="bold" font-size="90.0" fill="#FEFFFE" transform="matrix(1.00, 0.00, -0.00, -1.00, 985.3, 879.0)"> </text><text xml:space="preserve" font-family="HelveticaNeue-Bold" font-weight="bold" font-size="90.0" fill="#FEFFFE" transform="matrix(1.00, 0.00, -0.00, -1.00, 1010.4, 879.0)">t</text><text xml:space="preserve" font-family="HelveticaNeue-Bold" font-weight="bold" font-size="90.0" fill="#FEFFFE" transform="matrix(1.00, 0.00, -0.00, -1.00, 1042.0, 879.0)">y</text><text xml:space="preserve" font-family="HelveticaNeue-Bold" font-weight="bold" font-size="90.0" fill="#FEFFFE" transform="matrix(1.00, 0.00, -0.00, -1.00, 1088.8, 879.0)">p</text><text xml:space="preserve" font-family="HelveticaNeue-Bold" font-weight="bold" font-size="90.0" fill="#FEFFFE" transform="matrix(1.00, 0.00, -0.00, -1.00, 1143.7, 879.0)">e</text><text xml:space="preserve" font-family="HelveticaNeue-Bold" font-weight="bold" font-size="90.0" fill="#FEFFFE" transform="matrix(1.00, 0.00, -0.00, -1.00, 1195.4, 879.0)">s</text><image xlink:href="D4A260C128CF02DC021728C5FD2F55DF.png" width="955.00" height="57.00" transform="matrix(1.00, 0.00, -0.00, -1.00, 474.0, 170.0)"></image><text xml:space="preserve" font-family="HelveticaNeue-Medium" font-size="52.0" fill="#EAEAEA" transform="matrix(1.00, 0.00, -0.00, -1.00, 464.0, 129.0)"> </text><text xml:space="preserve" font-family="HelveticaNeue-Medium" font-size="52.0" fill="#EAEAEA" transform="matrix(1.00, 0.00, -0.00, -1.00, 478.5, 129.0)">t</text><text xml:space="preserve" font-family="HelveticaNeue-Medium" font-size="52.0" fill="#EAEAEA" transform="matrix(1.00, 0.00, -0.00, -1.00, 495.8, 129.0)">o</text><text xml:space="preserve" font-family="HelveticaNeue-Medium" font-size="52.0" fill="#EAEAEA" transform="matrix(1.00, 0.00, -0.00, -1.00, 526.6, 129.0)"> </text><text xml:space="preserve" font-family="HelveticaNeue-Medium" font-size="52.0" fill="#EAEAEA" transform="matrix(1.00, 0.00, -0.00, -1.00, 541.1, 129.0)">a</text><text xml:space="preserve" font-family="HelveticaNeue-Medium" font-size="52.0" fill="#EAEAEA" transform="matrix(1.00, 0.00, -0.00, -1.00, 570.0, 129.0)">c</text><text xml:space="preserve" font-family="HelveticaNeue-Medium" font-size="52.0" fill="#EAEAEA" transform="matrix(1.00, 0.00, -0.00, -1.00, 598.9, 129.0)">c</text><text xml:space="preserve" font-family="HelveticaNeue-Medium" font-size="52.0" fill="#EAEAEA" transform="matrix(1.00, 0.00, -0.00, -1.00, 627.8, 129.0)">e</text><text xml:space="preserve" font-family="HelveticaNeue-Medium" font-size="52.0" fill="#EAEAEA" transform="matrix(1.00, 0.00, -0.00, -1.00, 656.7, 129.0)">s</text><text xml:space="preserve" font-family="HelveticaNeue-Medium" font-size="52.0" fill="#EAEAEA" transform="matrix(1.00, 0.00, -0.00, -1.00, 683.7, 129.0)">s</text><text xml:space="preserve" font-family="HelveticaNeue-Medium" font-size="52.0" fill="#EAEAEA" transform="matrix(1.00, 0.00, -0.00, -1.00, 710.7, 129.0)"> </text><text xml:space="preserve" font-family="HelveticaNeue-Medium" font-size="52.0" fill="#EAEAEA" transform="matrix(1.00, 0.00, -0.00, -1.00, 725.1, 129.0)">s</text><text xml:space="preserve" font-family="HelveticaNeue-Medium" font-size="52.0" fill="#EAEAEA" transform="matrix(1.00, 0.00, -0.00, -1.00, 752.1, 129.0)">t</text><text xml:space="preserve" font-family="HelveticaNeue-Medium" font-size="52.0" fill="#EAEAEA" transform="matrix(1.00, 0.00, -0.00, -1.00, 769.4, 129.0)">r</text><text xml:space="preserve" font-family="HelveticaNeue-Medium" font-size="52.0" fill="#EAEAEA" transform="matrix(1.00, 0.00, -0.00, -1.00, 786.8, 129.0)">e</text><text xml:space="preserve" font-family="HelveticaNeue-Medium" font-size="52.0" fill="#EAEAEA" transform="matrix(1.00, 0.00, -0.00, -1.00, 815.7, 129.0)">a</text><text xml:space="preserve" font-family="HelveticaNeue-Medium" font-size="52.0" fill="#EAEAEA" transform="matrix(1.00, 0.00, -0.00, -1.00, 844.6, 129.0)">m</text><text xml:space="preserve" font-family="HelveticaNeue-Medium" font-size="52.0" fill="#EAEAEA" transform="matrix(1.00, 0.00, -0.00, -1.00, 889.9, 129.0)"> </text><text xml:space="preserve" font-family="HelveticaNeue-Medium" font-size="52.0" fill="#EAEAEA" transform="matrix(1.00, 0.00, -0.00, -1.00, 904.3, 129.0)">A</text><text xml:space="preserve" font-family="HelveticaNeue-Medium" font-size="52.0" fill="#EAEAEA" transform="matrix(1.00, 0.00, -0.00, -1.00, 939.0, 129.0)">P</text><text xml:space="preserve" font-family="HelveticaNeue-Medium" font-size="52.0" fill="#EAEAEA" transform="matrix(1.00, 0.00, -0.00, -1.00, 973.7, 129.0)">I</text><text xml:space="preserve" font-family="HelveticaNeue-Medium" font-size="52.0" fill="#EAEAEA" transform="matrix(1.00, 0.00, -0.00, -1.00, 988.2, 129.0)"> </text><text xml:space="preserve" font-family="HelveticaNeue-Medium" font-size="52.0" fill="#EAEAEA" transform="matrix(1.00, 0.00, -0.00, -1.00, 1002.6, 129.0)">-</text><text xml:space="preserve" font-family="HelveticaNeue-Medium" font-size="52.0" fill="#EAEAEA" transform="matrix(1.00, 0.00, -0.00, -1.00, 1022.8, 129.0)"> </text><text xml:space="preserve" font-family="HelveticaNeue-Medium" font-size="52.0" fill="#EAEAEA" transform="matrix(1.00, 0.00, -0.00, -1.00, 1037.3, 129.0)">r</text><text xml:space="preserve" font-family="HelveticaNeue-Medium" font-size="52.0" fill="#EAEAEA" transform="matrix(1.00, 0.00, -0.00, -1.00, 1054.7, 129.0)">e</text><text xml:space="preserve" font-family="HelveticaNeue-Medium" font-size="52.0" fill="#EAEAEA" transform="matrix(1.00, 0.00, -0.00, -1.00, 1083.6, 129.0)">q</text><text xml:space="preserve" font-family="HelveticaNeue-Medium" font-size="52.0" fill="#EAEAEA" transform="matrix(1.00, 0.00, -0.00, -1.00, 1115.4, 129.0)">u</text><text xml:space="preserve" font-family="HelveticaNeue-Medium" font-size="52.0" fill="#EAEAEA" transform="matrix(1.00, 0.00, -0.00, -1.00, 1145.2, 129.0)">i</text><text xml:space="preserve" font-family="HelveticaNeue-Medium" font-size="52.0" fill="#EAEAEA" transform="matrix(1.00, 0.00, -0.00, -1.00, 1157.7, 129.0)">r</text><text xml:space="preserve" font-family="HelveticaNeue-Medium" font-size="52.0" fill="#EAEAEA" transform="matrix(1.00, 0.00, -0.00, -1.00, 1175.1, 129.0)">e</text><text xml:space="preserve" font-family="HelveticaNeue-Medium" font-size="52.0" fill="#EAEAEA" transform="matrix(1.00, 0.00, -0.00, -1.00, 1204.0, 129.0)">(</text><text xml:space="preserve" font-family="HelveticaNeue-Medium" font-size="52.0" fill="#EAEAEA" transform="matrix(1.00, 0.00, -0.00, -1.00, 1218.5, 129.0)">‘</text><text xml:space="preserve" font-family="HelveticaNeue-Medium" font-size="52.0" fill="#EAEAEA" transform="matrix(1.00, 0.00, -0.00, -1.00, 1232.9, 129.0)">s</text><text xml:space="preserve" font-family="HelveticaNeue-Medium" font-size="52.0" fill="#EAEAEA" transform="matrix(1.00, 0.00, -0.00, -1.00, 1259.9, 129.0)">t</text><text xml:space="preserve" font-family="HelveticaNeue-Medium" font-size="52.0" fill="#EAEAEA" transform="matrix(1.00, 0.00, -0.00, -1.00, 1277.2, 129.0)">r</text><text xml:space="preserve" font-family="HelveticaNeue-Medium" font-size="52.0" fill="#EAEAEA" transform="matrix(1.00, 0.00, -0.00, -1.00, 1294.6, 129.0)">e</text><text xml:space="preserve" font-family="HelveticaNeue-Medium" font-size="52.0" fill="#EAEAEA" transform="matrix(1.00, 0.00, -0.00, -1.00, 1323.5, 129.0)">a</text><text xml:space="preserve" font-family="HelveticaNeue-Medium" font-size="52.0" fill="#EAEAEA" transform="matrix(1.00, 0.00, -0.00, -1.00, 1352.4, 129.0)">m</text><text xml:space="preserve" font-family="HelveticaNeue-Medium" font-size="52.0" fill="#EAEAEA" transform="matrix(1.00, 0.00, -0.00, -1.00, 1397.7, 129.0)">’</text><text xml:space="preserve" font-family="HelveticaNeue-Medium" font-size="52.0" fill="#EAEAEA" transform="matrix(1.00, 0.00, -0.00, -1.00, 1412.1, 129.0)">)</text></g></svg>